<svg width="24" height="24" viewBox="0 0 24 24" fill="none" xmlns="http://www.w3.org/2000/svg">
<g clip-path="url(#clip0_56820_1392)">
<path d="M15.5532 0.0254111C15.9772 -0.0593945 16.4945 0.0423723 16.8761 0.228945C18.1822 0.881948 19.7765 5.10527 20.7942 6.36039C21.4302 6.7081 22.0493 6.7929 22.4988 7.44591C23.1857 8.44661 22.6684 10.6516 22.8295 11.8643L22.9228 12.0509C23.3723 12.195 23.8387 12.7378 23.9235 13.1872C24.0337 13.73 24.0083 16.6643 23.8811 17.1986C23.7284 17.8176 23.3214 18.0551 22.8465 18.3943C22.592 20.2855 23.6691 23.0332 21.2352 23.7625H1.72137C0.864837 23.4911 0.262717 22.8127 0.118548 21.9222C0.406887 17.6056 -0.271558 12.7802 0.118548 8.51446C0.30512 6.41976 2.34046 6.4028 3.98569 6.52152C7.90371 4.52859 11.5758 1.92506 15.5532 0.0254111ZM6.36024 6.52152H8.45494L16.6896 1.73C16.9101 1.6028 16.6557 1.36534 16.503 1.27205C16.1807 1.06852 15.7652 1.077 15.4175 1.20421L6.36024 6.52152ZM10.6429 6.52152H12.7376L17.9023 3.54485L17.385 2.61198L10.6429 6.52152ZM19.573 6.52152L18.4026 4.47771L15.0104 6.52152H19.573ZM21.8034 11.9152V8.51446C21.8034 8.51446 21.6083 8.07347 21.5659 8.00562C21.303 7.63248 20.7942 7.56463 20.3617 7.53071C14.6712 7.08972 8.42102 7.86993 2.6712 7.53071C2.103 7.53071 1.59417 7.70032 1.30583 8.20916L1.2295 21.8205C1.2719 22.2869 1.72986 22.7194 2.20477 22.7109H20.8196C21.2012 22.7618 21.7949 22.1427 21.7949 21.8205V18.4198H18.1228C16.1892 18.4198 14.8663 15.901 15.426 14.1371C15.7143 13.2127 17.0288 11.9067 18.0295 11.9067H21.7949L21.8034 11.9152ZM22.7193 13.1448C22.5751 13.0431 22.4055 13.0431 22.2359 13.0261C21.2267 12.9413 19.327 12.9328 18.3178 13.0261C15.7991 13.2551 15.7822 17.0035 18.2415 17.3003C19.1913 17.4191 21.2606 17.3936 22.2359 17.3173C22.7532 17.2749 22.7956 17.2325 22.838 16.7152C22.9058 15.901 22.9058 14.4509 22.838 13.6367C22.821 13.4671 22.821 13.2975 22.7193 13.1533V13.1448Z" fill="white"/>
<path d="M18.5298 16.2487C19.1294 16.2487 19.6154 15.7627 19.6154 15.1632C19.6154 14.5637 19.1294 14.0777 18.5298 14.0777C17.9303 14.0777 17.4443 14.5637 17.4443 15.1632C17.4443 15.7627 17.9303 16.2487 18.5298 16.2487Z" fill="white"/>
</g>
<defs>
<clipPath id="clip0_56820_1392">
<rect width="24" height="23.7625" fill="white"/>
</clipPath>
</defs>
</svg>
