<svg width="24" height="19" viewBox="0 0 24 19" fill="none" xmlns="http://www.w3.org/2000/svg">
<path d="M22.0328 7.54967H20.2318H18.821H6.07854C5.43317 7.54967 4.69774 7.96991 4.36755 8.51023L2.80664 11.7971V15.1741L5.53823 9.30569C5.68832 9.03553 5.98849 8.9755 6.27366 8.96049H21.9128C22.288 8.99051 22.7383 9.1556 22.6182 9.62088L18.836 17.2753H1.42583V14.7239V14.7539V1.47112H7.21921C7.96965 2.29661 8.43492 3.43727 9.32043 4.11266C9.4255 4.1727 9.75569 4.29277 9.84574 4.29277H18.836V5.89871H20.2468V4.03762C20.2468 3.58736 19.4213 2.86694 18.9561 2.89696H10.0108L8.28483 0.525573C8.01467 0.270424 7.68448 0.120337 7.30926 0.0903191C5.41816 -0.149821 3.24189 0.180372 1.35079 0.0452929C0.645376 0.120337 0.165096 0.600617 0 1.261V17.4554C0.180105 18.1158 0.690403 18.5811 1.38081 18.6712H19.2262C19.5114 18.6712 19.7215 18.5061 19.8716 18.2809C21.0273 15.6394 22.6932 13.0579 23.8039 10.4313C24.3892 9.03553 23.6238 7.54967 22.0479 7.54967H22.0328Z" fill="white"/>
</svg>
