<svg width="21" height="24" viewBox="0 0 21 24" fill="none" xmlns="http://www.w3.org/2000/svg">
<path d="M16.5493 23.6279C17.1189 23.6279 17.5806 23.1662 17.5806 22.5967C17.5806 22.0271 17.1189 21.5654 16.5493 21.5654C15.9798 21.5654 15.5181 22.0271 15.5181 22.5967C15.5181 23.1662 15.9798 23.6279 16.5493 23.6279Z" fill="white"/>
<path d="M13.3028 24.0021H7.04283C3.15937 24.0021 0 20.8403 0 16.9539V10.0402C0 7.90411 0.951234 5.90789 2.60981 4.56337L6.84689 1.12861C7.09378 0.928453 7.36603 0.750703 7.65614 0.600375C9.52055 -0.365906 11.9231 -0.148688 13.4988 1.12861L17.7359 4.56337C19.3945 5.90789 20.3457 7.90411 20.3457 10.0402V16.9539C20.3457 18.3284 19.95 19.6607 19.2011 20.8068C18.8895 21.2835 18.2504 21.4174 17.7737 21.106C17.2969 20.7945 17.163 20.1554 17.4745 19.6786C18.0036 18.8689 18.2832 17.9267 18.2832 16.9539V10.0402C18.2832 8.52886 17.6104 7.11666 16.4371 6.16556L12.2 2.7308C11.2725 1.97887 9.72698 1.85025 8.60517 2.43159C8.43891 2.51775 8.28431 2.61839 8.14575 2.73075L3.90863 6.16556C2.73539 7.11666 2.0625 8.52886 2.0625 10.0402V16.9539C2.0625 19.703 4.29666 21.9396 7.04283 21.9396H13.3028C13.8723 21.9396 14.334 22.4013 14.334 22.9708C14.334 23.5403 13.8724 24.0021 13.3028 24.0021ZM14.4069 18.8915C14.4069 16.5552 12.5075 14.6545 10.1728 14.6545C7.83816 14.6545 5.93873 16.5552 5.93873 18.8915C5.93873 19.461 6.40045 19.9227 6.96998 19.9227C7.53952 19.9227 8.00123 19.461 8.00123 18.8915C8.00123 17.6925 8.97539 16.717 10.1728 16.717C11.3702 16.717 12.3444 17.6925 12.3444 18.8915C12.3444 19.461 12.8061 19.9227 13.3756 19.9227C13.9452 19.9227 14.4069 19.461 14.4069 18.8915Z" fill="white"/>
</svg>
