<svg width="167" height="60" viewBox="0 0 167 60" fill="none" xmlns="http://www.w3.org/2000/svg">
<path d="M86.3165 38.3779C86.3165 38.9561 85.7964 39.4762 85.2183 39.4762C84.6981 39.4762 84.351 39.1871 84.12 38.725L82.5881 35.2857H72.7913L71.3459 38.725C71.1433 39.1871 70.7677 39.4762 70.276 39.4762C69.6694 39.4762 69.1777 38.9561 69.1777 38.3779C69.1777 38.1753 69.2358 37.9443 69.3507 37.6552L76.6618 20.5473C76.8929 20.0272 77.24 19.7665 77.7317 19.7665C78.2234 19.7665 78.5693 20.0259 78.8015 20.5473L86.1127 37.6552C86.2572 37.9443 86.3153 38.1753 86.3153 38.3779H86.3165ZM73.6301 33.2633H81.7221L77.7342 23.149L73.6301 33.2633Z" fill="#180054"/>
<path d="M91.0852 29.6213C91.0852 24.0731 95.4203 19.7665 100.998 19.7665C103.974 19.7665 106.922 21.1538 108.512 23.2923C108.743 23.6098 108.859 23.8409 108.859 24.1299C108.859 24.65 108.397 25.1417 107.789 25.1417C107.414 25.1417 107.125 25.0256 106.749 24.5932C105.014 22.6857 103.31 21.8481 100.998 21.8481C96.6347 21.8481 93.4263 25.143 93.4263 29.5929C93.4263 34.0428 96.6915 37.4538 101.113 37.4538C103.772 37.4538 106.113 36.2406 107.47 34.217V31.472H102.037C101.372 31.472 100.852 31.0099 100.852 30.4602C100.852 29.882 101.372 29.4484 102.037 29.4484H108.539C109.204 29.4484 109.724 29.9401 109.724 30.6331V33.7253C109.724 34.3035 109.579 34.7952 109.262 35.2857C107.499 37.8862 104.32 39.4762 100.997 39.4762C95.419 39.4762 91.084 35.1708 91.084 29.6213H91.0852Z" fill="#180054"/>
<path d="M116.777 38.2914V20.9512C116.777 20.2866 117.239 19.7665 117.904 19.7665C118.569 19.7665 119.031 20.2866 119.031 20.9512V38.2914C119.031 38.9561 118.539 39.4762 117.904 39.4762C117.269 39.4762 116.777 38.9561 116.777 38.2914Z" fill="#180054"/>
<path d="M127.152 37.9739V20.9512C127.152 20.2866 127.614 19.7665 128.278 19.7665C128.943 19.7665 129.405 20.2866 129.405 20.9512V37.1351H137.525C138.132 37.1351 138.566 37.5687 138.566 38.1469C138.566 38.725 138.132 39.1587 137.525 39.1587H128.335C127.642 39.1587 127.15 38.6386 127.15 37.9739H127.152Z" fill="#180054"/>
<path d="M144.666 38.2914V20.9512C144.666 20.2866 145.128 19.7665 145.793 19.7665C146.457 19.7665 146.919 20.2866 146.919 20.9512V38.2914C146.919 38.9561 146.428 39.4762 145.793 39.4762C145.158 39.4762 144.666 38.9561 144.666 38.2914Z" fill="#180054"/>
<path d="M154.173 36.2108C154 36.0082 153.912 35.7772 153.912 35.5178C153.912 34.9396 154.404 34.4776 154.982 34.4776C155.329 34.4776 155.618 34.6221 155.849 34.9112C157.12 36.5296 158.739 37.3968 160.589 37.3968C162.901 37.3968 164.433 36.096 164.433 34.2181C164.433 32.8024 163.71 32.0216 161.254 30.8652L159.116 29.8534C156.081 28.408 154.809 26.8773 154.809 24.7389C154.809 21.8777 157.265 19.7676 160.56 19.7676C162.698 19.7676 164.491 20.5768 165.819 22.0506C166.136 22.3978 166.224 22.7153 166.224 22.9759C166.224 23.496 165.704 23.9877 165.154 23.9877C164.865 23.9877 164.606 23.8432 164.374 23.6122C163.333 22.4558 162.004 21.8492 160.53 21.8492C158.507 21.8492 157.149 22.9475 157.149 24.624C157.149 25.9817 157.755 26.6463 160.213 27.8323L162.323 28.8441C165.531 30.376 166.773 31.8783 166.773 34.1613C166.773 37.2819 164.259 39.4785 160.617 39.4785C158.161 39.4785 155.675 38.2357 154.172 36.2133L154.173 36.2108Z" fill="#180054"/>
<path d="M47.3661 5.83862H12.6339C8.88055 5.83862 5.83789 8.88128 5.83789 12.6346V47.3668C5.83789 51.1201 8.88055 54.1628 12.6339 54.1628H47.3661C51.1194 54.1628 54.1621 51.1201 54.1621 47.3668V12.6346C54.1621 8.88128 51.1194 5.83862 47.3661 5.83862Z" fill="url(#paint0_linear_54651_11675)"/>
<path d="M60 11.4695V11.4633C60 9.8919 59.6788 8.37729 59.0969 7.00352C58.2235 4.94039 56.7744 3.19723 54.9459 1.96183C54.0317 1.34412 53.02 0.852431 51.939 0.5164C50.8605 0.180369 49.7128 0 48.5354 0H48.5317C48.5305 0 48.5292 0 48.5255 0H11.467C9.89437 0 8.37853 0.321206 7.00352 0.903082C4.94039 1.77651 3.19723 3.22565 1.96183 5.05405C1.34412 5.96825 0.852431 6.98005 0.5164 8.06103C0.180369 9.14077 0 10.2885 0 11.4658V11.467V11.4695V48.5342C0 50.1069 0.321206 51.6227 0.903082 52.9965C1.77651 55.0596 3.22565 56.8028 5.05405 58.0382C5.96825 58.6559 6.98005 59.1476 8.06103 59.4836C9.1173 59.8122 10.239 59.9901 11.3904 59.9988H11.404L48.5305 60H48.5416C50.1106 59.9988 51.6239 59.6776 52.9965 59.0969C55.0596 58.2235 56.8028 56.7744 58.0382 54.9459C58.6559 54.0317 59.1476 53.02 59.4836 51.939C59.8159 50.8716 59.9951 49.7387 59.9988 48.575V48.5552V11.4695H60ZM56.0726 53.6179C55.0917 55.0695 53.7068 56.2197 52.0712 56.9115C50.984 57.3723 49.7819 57.6268 48.533 57.6268H48.5292H11.4695H11.467C10.5306 57.6268 9.61888 57.4835 8.76398 57.2179C7.90784 56.951 7.10606 56.5631 6.38088 56.0726C4.92927 55.0917 3.77911 53.7068 3.08728 52.0712C2.62647 50.984 2.37198 49.7819 2.37198 48.533V11.467C2.37198 10.5306 2.51529 9.62011 2.7809 8.76521C3.04775 7.90907 3.43567 7.10729 3.92612 6.38211C4.90704 4.93051 6.29069 3.78034 7.9276 3.08852C9.01476 2.62771 10.2168 2.37322 11.4646 2.37322H48.533C49.4694 2.37322 50.3799 2.51652 51.2348 2.78214C52.0909 3.04898 52.8927 3.4369 53.6179 3.92736C55.0695 4.90827 56.2197 6.29193 56.9115 7.92884C57.3723 9.016 57.6268 10.218 57.6268 11.467V11.4732V48.5268C57.6268 48.5268 57.6268 48.5268 57.6268 48.528V48.533C57.6268 49.4694 57.4835 50.3811 57.2179 51.2348C56.951 52.0909 56.5631 52.8927 56.0726 53.6179Z" fill="#180054"/>
<path d="M47.0102 17.4687C46.6 16.3889 45.9712 15.3536 45.1225 14.3888C44.1848 13.3214 43.157 12.532 42.0735 12.0156C40.9913 11.4979 39.8572 11.2595 38.7404 11.2607C37.2221 11.2607 35.7458 11.6931 34.3831 12.3998C32.9525 13.1435 31.6368 14.1887 30.4879 15.4129C29.9715 14.8496 29.4168 14.327 28.8213 13.86C27.9355 13.1657 26.9633 12.5925 25.9169 12.191C24.8717 11.7895 23.7512 11.5634 22.5874 11.5634C21.4743 11.5634 20.3242 11.7722 19.1753 12.2145C18.0251 12.6568 16.8762 13.3325 15.7433 14.2554C14.4091 15.3413 13.4244 16.7027 12.7882 18.2235C12.1507 19.7455 11.8555 21.4232 11.8555 23.175C11.8592 26.7478 13.0686 30.6418 15.2281 34.3641C17.3913 38.0851 20.5169 41.6394 24.4245 44.4833C26.857 46.2536 29.5934 47.746 32.5868 48.8245C33.186 49.0407 33.8469 48.7294 34.0619 48.1302C34.2781 47.5311 33.9668 46.8701 33.3676 46.6551C30.5916 45.6557 28.0479 44.2683 25.781 42.6191C22.1402 39.9704 19.2185 36.6446 17.2208 33.2065C15.2207 29.7696 14.157 26.2203 14.1595 23.175C14.1595 21.6814 14.4115 20.3113 14.9131 19.1142C15.4159 17.9171 16.1621 16.888 17.1974 16.043C18.1659 15.2536 19.1036 14.7125 20.0017 14.3666C20.8999 14.0206 21.7573 13.8699 22.585 13.8687C23.7364 13.8687 24.8371 14.164 25.8823 14.6989C27.0189 15.2795 28.0801 16.1542 29.0017 17.2142C27.6304 19.1241 26.6297 21.2824 26.222 23.4283C26.1714 23.6926 26.1479 23.9583 26.1479 24.2177C26.1479 25.3567 26.6099 26.4093 27.3635 27.174C27.7403 27.557 28.1937 27.8708 28.7015 28.0882C29.2092 28.3057 29.7726 28.4267 30.3594 28.4267C30.9462 28.4267 31.5108 28.3057 32.0173 28.0882C32.7796 27.7608 33.4158 27.221 33.863 26.5501C34.3102 25.8793 34.5709 25.0726 34.5709 24.2189C34.5709 23.9583 34.5462 23.6939 34.4968 23.4295C34.2237 21.9828 33.7271 20.5374 33.0464 19.1723C32.7153 18.5101 32.341 17.8665 31.9259 17.25C32.5139 16.594 33.1514 15.9961 33.8185 15.4858C34.608 14.8805 35.4369 14.3974 36.2671 14.0688C37.0985 13.7402 37.9275 13.5673 38.7342 13.5673C39.5273 13.5673 40.3019 13.7303 41.0741 14.0985C41.8462 14.4666 42.622 15.046 43.3831 15.9121C44.065 16.6891 44.5394 17.4823 44.847 18.2902C45.1546 19.0994 45.2992 19.9284 45.2992 20.7894C45.2992 21.5752 45.1769 22.3881 44.9397 23.222C44.5258 24.681 43.7524 26.2018 42.6925 27.709C41.1037 29.971 38.8738 32.1947 36.3276 34.1615C33.7815 36.1295 30.9178 37.8418 28.0764 39.1105C27.4945 39.37 27.2338 40.0519 27.4932 40.6338C27.7527 41.2157 28.4346 41.4763 29.0165 41.2169C33.6147 39.1612 38.1894 36.064 41.672 32.5036C43.4127 30.7209 44.8804 28.8208 45.928 26.854C46.4518 25.8707 46.8694 24.8688 47.1585 23.8545C47.4463 22.8414 47.6057 21.8161 47.6057 20.7907C47.6057 19.6689 47.4142 18.5496 47.0028 17.4711L47.0102 17.4687ZM32.2372 23.857C32.2607 23.9805 32.2718 24.1003 32.2718 24.2189C32.2718 24.7304 32.0643 25.206 31.7196 25.5569C31.5479 25.7311 31.3428 25.8731 31.1155 25.9695C30.8881 26.0671 30.6386 26.1215 30.3656 26.1215C30.0925 26.1215 29.843 26.0671 29.6157 25.9695C29.2759 25.8237 28.9844 25.5779 28.7805 25.2715C28.5767 24.9639 28.4606 24.6031 28.4606 24.2189C28.4606 24.1003 28.4717 23.9805 28.4952 23.8582C28.7175 22.6734 29.187 21.4146 29.8455 20.2051C30.0295 19.8654 30.2297 19.5306 30.4422 19.2019C31.3168 20.6622 31.9432 22.2868 32.2384 23.857H32.2372Z" fill="white"/>
<defs>
<linearGradient id="paint0_linear_54651_11675" x1="7.6317" y1="8.51945" x2="52.0186" y2="51.1447" gradientUnits="userSpaceOnUse">
<stop stop-color="#FB00FF"/>
<stop offset="1" stop-color="#FFDE12"/>
</linearGradient>
</defs>
</svg>
