<svg width="44" height="44" viewBox="0 0 44 44" fill="none" xmlns="http://www.w3.org/2000/svg">
<g clip-path="url(#clip0_56759_13739)">
<path d="M36.5258 0.00662391L21.0368 15.4544C13.4094 12.034 4.36776 15.6024 1.18155 23.2878C-3.44135 34.433 6.18658 46.0296 17.9742 43.6882C27.2706 41.8413 32.4442 31.5465 28.55 22.9095L33.4332 18L33.4332 15.5518L35.8814 15.5518L38.8447 12.5885L38.8447 9.92489L38.974 9.79564L41.6376 9.79564L43.9996 7.4767L43.9996 0.00662424L36.5258 0.00662391ZM30.942 12.9781L30.8108 16.9285L25.4555 22.3176C25.3787 22.5967 26.0793 23.7262 26.231 24.0877C31.7924 37.3383 14.6532 47.6873 5.51599 37.0704C-2.8869 27.3057 7.76751 12.5716 19.9167 17.7733C20.3007 17.9382 21.432 18.6649 21.7467 18.5188L37.6853 2.58406L41.4222 2.58406L41.4222 6.32097L40.5193 7.22382L36.3535 7.22382L36.2504 11.459L34.765 12.98L30.942 12.98L30.942 12.9781Z" fill="white"/>
<path d="M11.9847 37.0929C14.7851 37.0929 17.0534 34.8226 17.0534 32.0242C17.0534 29.2257 14.7832 26.9554 11.9847 26.9554C9.18626 26.9554 6.91602 29.2257 6.91602 32.0242C6.91602 34.8226 9.18626 37.0929 11.9847 37.0929ZM11.9829 34.5173C10.6061 34.5173 9.48971 33.4009 9.48971 32.0242C9.48971 30.6474 10.6061 29.531 11.9829 29.531C13.3596 29.531 14.476 30.6474 14.476 32.0242C14.476 33.4009 13.3596 34.5173 11.9829 34.5173Z" fill="white"/>
</g>
<defs>
<clipPath id="clip0_56759_13739">
<rect width="43.9869" height="44" fill="white" transform="matrix(-4.37114e-08 1 1 4.37114e-08 0 0.00656128)"/>
</clipPath>
</defs>
</svg>
