<svg width="24" height="26" viewBox="0 0 24 26" fill="none" xmlns="http://www.w3.org/2000/svg">
<path d="M2.48535 20.2891C2.48535 20.398 2.48791 20.5072 2.49414 20.6162L2.52246 20.9424V20.9434C2.66594 22.2275 3.82563 23.3417 5.09277 23.3652C6.12681 23.3846 7.1601 23.3898 8.19336 23.3906H11.6064L11.6152 23.3916C12.0523 23.424 12.4091 23.7001 12.4902 24.127H12.4912C12.5795 24.5695 12.3469 24.9554 11.9395 25.1553L11.9385 25.1543C11.9377 25.1547 11.937 25.1564 11.9355 25.1572C11.9318 25.1595 11.9277 25.1628 11.9209 25.167C11.9098 25.1739 11.8876 25.188 11.8633 25.2002L11.8145 25.2246H5.06055V25.2891L4.77832 25.2246C4.56842 25.1766 4.3187 25.1329 4.08594 25.0576V25.0566C3.16157 24.7618 2.40362 24.3035 1.83301 23.667C1.26233 23.0303 0.888772 22.2279 0.713867 21.2646L0.680664 21.042C0.655217 20.8187 0.651367 20.5942 0.651367 20.3799C0.644897 15.462 0.645508 10.5442 0.645508 5.62012C0.645508 3.7823 1.41597 2.35316 3.00195 1.39746C3.66361 0.995174 4.40301 0.776378 5.18359 0.769531H11.6758C12.1838 0.769591 12.5865 1.12841 12.6055 1.62988V1.72266C12.5979 1.93788 12.5271 2.13468 12.3936 2.29004C12.2411 2.46735 12.0223 2.57335 11.7725 2.60156L11.7715 2.60059C11.653 2.6151 11.5429 2.61523 11.4424 2.61523H5.48926C4.56175 2.61531 3.79457 2.91186 3.19141 3.59863H3.19043C2.68505 4.16941 2.47927 4.84868 2.48535 5.61816V20.2891Z" fill="#FF4C4C" stroke="#FF4C4C" stroke-width="0.461538"/>
<path d="M17.6025 7.83534C17.9388 7.63704 18.2925 7.67596 18.5908 7.88808L18.5918 7.8871C18.6935 7.95496 18.7799 8.0497 18.833 8.10292C20.2115 9.47491 21.5842 10.8541 22.9619 12.2318C23.1944 12.4643 23.3543 12.7142 23.3555 12.9984C23.3566 13.2833 23.1984 13.5324 22.9688 13.7621C22.27 14.4608 21.5708 15.1591 20.8721 15.8578L18.7754 17.9545C18.5445 18.1854 18.2425 18.3564 17.8525 18.2689V18.2699C17.2411 18.1389 16.9401 17.4068 17.2803 16.8832L17.2812 16.8803C17.359 16.7636 17.4617 16.6606 17.5303 16.5863L17.5371 16.5805C18.4217 15.6958 19.3069 14.8111 20.1973 13.9262H7.0166C6.87817 13.9262 6.7001 13.9207 6.53613 13.8715V13.8705C6.11897 13.7458 5.89648 13.3764 5.91309 12.9613V12.9603C5.92817 12.6175 6.12753 12.3043 6.44922 12.1664L6.59473 12.1185C6.75107 12.0798 6.90879 12.0736 7.04297 12.0736H20.2031C19.3043 11.1714 18.3905 10.2716 17.4961 9.35292L17.4941 9.35097C17.3345 9.18332 17.2116 8.94427 17.1641 8.72304L17.1631 8.72108C17.0782 8.31422 17.3099 8.00875 17.6016 7.83534H17.6025Z" fill="#FF4C4C" stroke="#FF4C4C" stroke-width="0.461538"/>
</svg>
