<svg width="24" height="24" viewBox="0 0 24 24" fill="none" xmlns="http://www.w3.org/2000/svg">
<g clip-path="url(#clip0_56820_1378)">
<path d="M19.9237 8.70892e-07L11.4752 8.42605C7.31475 6.56041 2.38295 8.50677 0.645017 12.6988C-1.87657 18.778 3.37503 25.1034 9.80466 23.8263C14.8754 22.8189 17.6974 17.2036 15.5732 12.4925L18.2368 9.81456L18.2368 8.47918L19.5722 8.47918L21.1886 6.86284L21.1886 5.40996L21.2591 5.33946L22.7119 5.33946L24.0003 4.07459L24.0003 1.04909e-06L19.9237 8.70892e-07ZM16.878 7.07535L16.8064 9.23014L13.8854 12.1696C13.8435 12.3218 14.2256 12.9379 14.3084 13.1351C17.3418 20.3627 7.99316 26.0077 3.00926 20.2166C-1.57414 14.8904 4.23735 6.85364 10.8642 9.69093C11.0736 9.78084 11.6907 10.1773 11.8624 10.0976L20.5561 1.40588L22.5944 1.40588L22.5944 3.44419L22.102 3.93665L19.8297 3.93665L19.7735 6.24674L18.9633 7.07637L16.878 7.07637L16.878 7.07535Z" fill="white"/>
<path d="M6.53669 20.2349C8.06413 20.2349 9.3014 18.9963 9.3014 17.4694C9.3014 15.9425 8.0631 14.7038 6.53669 14.7038C5.01027 14.7038 3.77197 15.9425 3.77197 17.4694C3.77197 18.9963 5.01027 20.2349 6.53669 20.2349ZM6.53567 18.8297C5.78472 18.8297 5.17579 18.2206 5.17579 17.4694C5.17579 16.7182 5.78472 16.1091 6.53567 16.1091C7.28661 16.1091 7.89555 16.7182 7.89555 17.4694C7.89555 18.2206 7.28661 18.8297 6.53567 18.8297Z" fill="white"/>
</g>
<defs>
<clipPath id="clip0_56820_1378">
<rect width="24" height="24.0003" fill="white" transform="matrix(-4.37114e-08 1 1 4.37114e-08 0 0)"/>
</clipPath>
</defs>
</svg>
