<svg width="24" height="24" viewBox="0 0 24 24" fill="none" xmlns="http://www.w3.org/2000/svg">
<g clip-path="url(#clip0_56820_1361)">
<path d="M11.7665 0.0101699C12.9936 0.154486 13.6193 1.44655 14.5143 2.07224C14.6964 2.20009 14.8572 2.22043 15.077 2.21268C16.2635 2.16619 17.4665 1.52791 18.5745 2.28629C19.6825 3.04468 19.4782 4.46362 19.7745 5.58715C19.8879 6.01525 19.9683 6.03656 20.3305 6.25062C21.6119 7.00706 23.5432 7.49328 22.9902 9.49724C22.8178 10.122 21.8686 11.5719 21.8812 12.0232C21.8918 12.4126 22.5911 13.5294 22.78 13.9768C23.8067 16.4195 21.9509 16.807 20.3305 17.7629C19.9944 17.9615 19.8937 17.9886 19.7823 18.3877C19.4675 19.5199 19.667 20.9776 18.5735 21.7273C17.4655 22.4866 16.2625 21.8474 15.0761 21.8009C14.8562 21.7922 14.6954 21.8135 14.5133 21.9413C13.7201 22.4953 13.0924 23.6596 12.0851 23.924C11.7151 24.0208 11.3849 24.0257 11.0129 23.9346C9.98432 23.6847 9.35088 22.5021 8.54891 21.9413C8.36585 21.8135 8.20604 21.7931 7.98618 21.8009C6.96434 21.8406 5.85534 22.3559 4.84901 21.9297C3.38551 21.3108 3.62474 19.6981 3.28865 18.4254C3.22473 18.1852 3.20148 18.0777 2.99808 17.9189C2.13703 17.2477 0.720025 17.0956 0.202813 15.974C-0.438375 14.5841 0.604766 13.6068 1.0658 12.4126C1.19753 12.0697 1.21012 11.9787 1.08033 11.6319C0.654163 10.489 -0.283405 9.65608 0.0953028 8.30591C0.418802 7.15235 1.80578 6.79785 2.7327 6.25062C3.09494 6.03656 3.1763 6.01525 3.28865 5.58715C3.58503 4.46265 3.41263 3.02337 4.4887 2.28629C5.56477 1.54922 6.79969 2.16619 7.98618 2.21268C8.20604 2.2214 8.36682 2.20009 8.54891 2.07224C9.44386 1.44655 10.0696 0.153517 11.2967 0.0101699C11.4139 -0.00338997 11.6493 -0.00338997 11.7665 0.0101699ZM11.3306 1.42621C11.2347 1.44558 11.1379 1.51919 11.0604 1.57827C10.3824 2.09839 9.62402 3.21224 8.83173 3.47859C7.77891 3.83308 6.69702 3.2471 5.68197 3.28585C5.32844 3.29941 5.09986 3.5028 5.00688 3.83308C4.74634 4.75322 4.84126 5.91646 4.28821 6.72424C3.73516 7.53202 2.43341 7.79644 1.66922 8.37564C1.42708 8.55967 1.32828 8.8512 1.40674 9.14758C1.62369 9.9728 2.48281 10.8978 2.55836 11.7947C2.65618 12.9598 1.72733 13.8141 1.42126 14.8292C1.32731 15.141 1.40867 15.4365 1.66922 15.6331C2.43438 16.2123 3.71966 16.4544 4.28821 17.2845C4.87709 18.1465 4.70469 19.3281 5.02528 20.2512C5.14248 20.5882 5.43208 20.7316 5.77689 20.7229C7.24717 20.689 8.27287 19.8841 9.60561 21.0241C10.0686 21.4202 10.6313 22.1544 11.1117 22.474C11.3868 22.6571 11.7113 22.6484 11.9776 22.4537C12.6895 21.9326 13.3956 20.812 14.2305 20.5311C15.2833 20.1766 16.3652 20.7626 17.3803 20.7238C17.7338 20.7103 17.9624 20.5069 18.0553 20.1766C18.3159 19.2565 18.221 18.0932 18.774 17.2854C19.3271 16.4777 20.6288 16.2132 21.393 15.634C21.6352 15.45 21.7339 15.1585 21.6555 14.8621C21.4385 14.0369 20.5794 13.1119 20.5039 12.215C20.406 11.0498 21.3349 10.1956 21.641 9.18052C21.7349 8.86864 21.6536 8.57323 21.393 8.37661C20.6278 7.79741 19.3426 7.55527 18.774 6.72521C18.1851 5.86319 18.3575 4.68155 18.0369 3.75851C17.9101 3.39433 17.605 3.27519 17.2398 3.28972C15.8703 3.34299 14.768 4.07619 13.5293 3.05339C13.0314 2.64272 12.4638 1.87659 11.9515 1.53469C11.7597 1.40684 11.5592 1.37778 11.3316 1.42524L11.3306 1.42621Z" fill="white"/>
<path d="M16.5643 6.76929C17.257 6.63078 17.7413 7.35333 17.2872 7.88411L7.69197 17.0923C7.00329 17.625 6.13337 16.793 6.68915 16.1295L16.2593 6.9446C16.3388 6.87292 16.4576 6.79059 16.5643 6.76929Z" fill="white"/>
<path d="M11.7437 8.31512C11.7437 9.71373 10.5617 10.8479 9.10477 10.8479C7.64786 10.8479 6.46582 9.71373 6.46582 8.31512C6.46582 6.91651 7.64786 5.78232 9.10477 5.78232C10.5617 5.78232 11.7437 6.91651 11.7437 8.31512ZM10.3009 8.31706C10.3009 7.68265 9.76526 7.16834 9.10376 7.16834C8.44226 7.16834 7.90662 7.68265 7.90662 8.31706C7.90662 8.95147 8.44226 9.46578 9.10376 9.46578C9.76526 9.46578 10.3009 8.95147 10.3009 8.31706Z" fill="white"/>
<path d="M17.5093 15.6994C17.5093 17.098 16.3273 18.2322 14.8704 18.2322C13.4135 18.2322 12.2314 17.098 12.2314 15.6994C12.2314 14.3008 13.4135 13.1666 14.8704 13.1666C16.3273 13.1666 17.5093 14.3008 17.5093 15.6994ZM16.0685 15.6975C16.0685 15.0631 15.5329 14.5488 14.8714 14.5488C14.2099 14.5488 13.6743 15.0631 13.6743 15.6975C13.6743 16.3319 14.2099 16.8462 14.8714 16.8462C15.5329 16.8462 16.0685 16.3319 16.0685 15.6975Z" fill="white"/>
</g>
<defs>
<clipPath id="clip0_56820_1361">
<rect width="24" height="24" fill="white"/>
</clipPath>
</defs>
</svg>
