<svg width="24" height="24" viewBox="0 0 24 24" fill="none" xmlns="http://www.w3.org/2000/svg">
<g clip-path="url(#clip0_55917_4879)">
<path d="M22.3307 17.3763C21.8946 18.2719 21.8073 19.9409 20.8304 20.4235C20.307 20.6794 19.929 20.6213 19.394 20.4643C16.3874 19.5919 13.3983 18.2835 10.386 17.3763L1.65711 17.3647C0.761549 17.2774 0.14512 16.5796 0.0637053 15.7073C-0.00607905 14.9687 -0.0351559 13.1253 0.0637053 12.4158C0.13349 11.9157 0.389366 11.9796 0.703395 11.7877C1.96533 11.0201 2.0293 8.71722 0.837148 7.87399C0.558011 7.67627 0.22072 7.6879 0.104413 7.33316C-0.000263693 6.99587 0.0229978 5.36176 0.0578899 4.94305C0.13349 4.07075 0.790626 3.36127 1.67456 3.27986C1.93625 2.56457 2.11071 1.73297 2.4073 1.04094C2.74459 0.255869 3.50058 -0.145391 4.338 0.0465156L13.7065 3.28567H22.447C23.1274 3.40198 23.7148 3.92536 23.8834 4.59994C23.9939 5.05936 24.0114 6.68766 23.9416 7.17615C23.8718 7.70535 23.4531 7.64719 23.11 7.92052C22.0807 8.72304 22.0516 10.7061 23.0053 11.5784C23.3135 11.8633 23.8253 11.8691 23.9241 12.3402C24.0404 12.9043 23.9997 15.0269 23.9474 15.6724C23.8718 16.6087 23.2554 17.2484 22.3365 17.3879L22.3307 17.3763ZM2.80274 3.29149H10.2755L4.17517 1.12817C4.01234 1.09328 3.78554 1.0642 3.64015 1.15143C3.30286 1.34334 2.98883 2.88441 2.80274 3.29149ZM4.93698 4.3557H1.65711C1.52336 4.3557 1.21515 4.6581 1.18607 4.79767C1.05813 5.35013 1.25585 6.26895 1.17444 6.86212C3.34357 8.07172 3.30868 11.4911 1.17444 12.724V15.812C1.17444 15.9981 1.55244 16.3005 1.70945 16.3005H4.93698C4.9079 15.8585 4.9079 15.149 5.51851 15.1781C6.09424 15.2072 6.0826 15.8759 6.05353 16.3005H22.29C22.447 16.3005 22.8192 16.0039 22.8192 15.812V12.7647C22.8018 12.6484 22.4645 12.4856 22.3424 12.3809C20.6792 10.962 20.8594 7.9147 22.825 6.86212C22.7378 6.26895 22.9355 5.35013 22.8134 4.79767C22.7785 4.65228 22.4761 4.3557 22.3424 4.3557H6.05353C6.10005 4.78604 6.05353 5.44899 5.47199 5.42573C4.89046 5.40246 4.90209 4.76859 4.93698 4.3557ZM21.1502 17.3647H13.7821L19.8766 19.4756C20.2139 19.5396 20.3942 19.5047 20.5687 19.1965C20.8304 18.7255 20.9467 17.888 21.1502 17.3647Z" fill="white"/>
<path d="M16.6136 7.21104C17.1545 7.09473 17.515 7.7286 17.137 8.14149L11.9788 13.2997C11.4728 13.7359 10.7692 13.1311 11.1646 12.5844L16.4275 7.32734C16.4799 7.27501 16.5438 7.22848 16.6194 7.21104H16.6136Z" fill="white"/>
<path d="M13.3406 7.74605C13.3406 8.71721 12.5555 9.50229 11.5844 9.50229C10.6132 9.50229 9.82812 8.71721 9.82812 7.74605C9.82812 6.77488 10.6132 5.98981 11.5844 5.98981C12.5555 5.98981 13.3406 6.77488 13.3406 7.74605ZM12.2648 7.74605C12.2648 7.37386 11.9624 7.07146 11.5902 7.07146C11.218 7.07146 10.9156 7.37386 10.9156 7.74605C10.9156 8.11823 11.218 8.42063 11.5902 8.42063C11.9624 8.42063 12.2648 8.11823 12.2648 7.74605Z" fill="white"/>
<path d="M18.5047 12.9042C18.5047 13.8754 17.7196 14.6605 16.7484 14.6605C15.7773 14.6605 14.9922 13.8754 14.9922 12.9042C14.9922 11.9331 15.7773 11.148 16.7484 11.148C17.7196 11.148 18.5047 11.9331 18.5047 12.9042ZM17.2195 12.4041C16.7019 11.904 15.7482 12.5379 16.1785 13.2706C16.667 14.1022 17.9813 13.1427 17.2195 12.4041Z" fill="white"/>
<path d="M5.32727 6.24572C5.57733 6.18757 5.80994 6.24572 5.9437 6.47252C6.09489 6.71677 6.08908 7.6763 6.04256 7.9787C5.92625 8.67073 5.04231 8.6591 4.94345 7.93799C4.90856 7.68212 4.90856 6.98427 4.94927 6.73421C4.98416 6.54231 5.12373 6.29806 5.32727 6.25154V6.24572Z" fill="white"/>
<path d="M5.32727 9.19409C5.57733 9.13593 5.80994 9.19409 5.9437 9.42089C6.09489 9.66513 6.08908 10.6247 6.04256 10.9271C5.92625 11.6191 5.04231 11.6075 4.94345 10.8864C4.90856 10.6305 4.90856 9.93264 4.94927 9.68258C4.98416 9.49067 5.12373 9.24642 5.32727 9.1999V9.19409Z" fill="white"/>
<path d="M5.32733 12.1425C5.59484 12.0843 5.83327 12.1541 5.96121 12.3984C6.08914 12.6426 6.09496 13.6603 6.01936 13.9511C5.88561 14.4628 5.21684 14.521 5.0133 14.0615C4.90281 13.8173 4.90281 12.9101 4.94933 12.6252C4.98423 12.4332 5.12379 12.189 5.32733 12.1425Z" fill="white"/>
</g>
<defs>
<clipPath id="clip0_55917_4879">
<rect width="24" height="20.6038" fill="white"/>
</clipPath>
</defs>
</svg>
