<svg width="86" height="77" viewBox="0 0 86 77" fill="none" xmlns="http://www.w3.org/2000/svg">
<path d="M43.0143 76.8987C31.423 76.8987 19.8316 76.8987 8.24025 76.8987C1.1071 76.8987 -2.11056 71.2867 1.47539 65.0532C13.0861 44.877 24.6969 24.7203 36.327 4.56353C39.8548 -1.5534 46.2514 -1.51457 49.8179 4.64121C61.4093 24.7203 72.865 44.877 84.6308 64.859C88.0035 70.607 84.9603 77.19 77.5364 76.9958C66.042 76.6657 54.5281 76.9181 43.0143 76.9181V76.8987ZM38.1297 36.8182C38.1297 40.0418 38.0715 43.2653 38.1297 46.4888C38.1878 49.6541 40.1068 51.5377 43.0725 51.5183C46.0382 51.5183 47.9377 49.6152 47.9571 46.4305C48.0153 40.1583 48.0153 33.8666 47.9571 27.5943C47.9184 24.3513 46.1351 22.6619 43.0143 22.6619C39.913 22.6619 38.1878 24.3707 38.1297 27.6525C38.0715 30.7207 38.1297 33.7695 38.1297 36.8376V36.8182ZM47.9571 62.4511C47.9571 59.8296 45.6117 57.5381 42.9756 57.5964C40.3588 57.6352 38.0715 60.0237 38.1491 62.6064C38.2266 65.1115 40.5138 67.3446 42.9949 67.3835C45.573 67.4223 47.9571 65.0338 47.9377 62.4511H47.9571Z" fill="#EE404C"/>
</svg>
