<svg width="20" height="20" viewBox="0 0 20 20" fill="none" xmlns="http://www.w3.org/2000/svg">
<path d="M2.72592 2.93694C3.95592 2.78694 7.44592 2.75694 8.65592 2.91694C9.86592 3.07694 9.90592 4.64694 8.73592 4.84694C6.99592 5.13694 4.59592 4.65694 2.79592 4.86694C2.35592 4.91694 2.02592 5.25694 2.03592 5.70694C2.27592 9.11694 1.72592 12.9369 2.03592 16.2969C2.08592 16.8069 2.35592 17.1269 2.88592 17.1469C6.29592 16.9069 10.1159 17.4569 13.4759 17.1469C13.9459 17.1069 14.2559 16.8769 14.3159 16.3869C14.5259 14.5869 14.0459 12.1869 14.3359 10.4469C14.5359 9.27694 16.0959 9.28694 16.2659 10.5269C16.4359 11.7669 16.3859 14.8969 16.2759 16.2169C16.1459 17.8969 15.0659 18.9769 13.3859 19.1069C10.0359 19.3669 6.35592 18.8969 2.97592 19.1069C1.29592 18.9569 0.21592 17.9069 0.08592 16.2169C-0.18408 12.8269 0.28592 9.06694 0.09592 5.63694C0.26592 4.16694 1.24592 3.11694 2.73592 2.93694H2.72592Z" fill="#2563EB"/>
<path d="M12.3062 2.02689C11.2762 1.84689 11.1862 0.346891 12.2562 0.106891C14.0862 0.186891 16.2962 -0.133109 18.0862 0.0668911C18.7062 0.136891 19.0362 0.476891 19.1062 1.08689C19.3062 2.87689 18.9862 5.08689 19.0662 6.91689C18.9062 7.64689 17.9862 7.96689 17.4462 7.41689C17.3862 7.35689 17.1462 6.91689 17.1462 6.86689V3.44689L9.09618 11.4469C8.06618 12.3869 6.77618 11.1069 7.72618 10.0769L15.7362 2.02689C14.7162 1.89689 13.2762 2.19689 12.3162 2.02689H12.3062Z" fill="#2563EB"/>
</svg>
