<svg width="44" height="44" viewBox="0 0 44 44" fill="none" xmlns="http://www.w3.org/2000/svg">
<g clip-path="url(#clip0_56759_13730)">
<path d="M22.4937 0.0195298C24.7436 0.284109 25.8907 2.65289 27.5314 3.79999C27.8652 4.03438 28.16 4.07167 28.5631 4.05747C30.7383 3.97223 32.9437 2.80205 34.9751 4.19242C37.0065 5.58279 36.6318 8.18419 37.1752 10.244C37.383 11.0289 37.5303 11.0679 38.1945 11.4603C40.5437 12.8472 44.0844 13.7386 43.0705 17.4125C42.7545 18.5578 41.0143 21.216 41.0374 22.0435C41.0569 22.7573 42.3389 24.8047 42.6852 25.6251C44.5674 30.1034 41.1652 30.8137 38.1945 32.5663C37.5783 32.9303 37.3936 32.98 37.1894 33.7116C36.6123 35.7874 36.9781 38.4598 34.9733 39.8342C32.942 41.2264 30.7365 40.0544 28.5613 39.9692C28.1582 39.9532 27.8635 39.9922 27.5296 40.2266C26.0753 41.2423 24.9247 43.3767 23.078 43.8615C22.3996 44.0391 21.7941 44.0479 21.1123 43.881C19.2265 43.4229 18.0652 41.2548 16.5949 40.2266C16.2593 39.9922 15.9663 39.955 15.5632 39.9692C13.6898 40.042 11.6567 40.9866 9.81172 40.2053C7.12864 39.0707 7.56724 36.1141 6.95107 33.7809C6.83387 33.3405 6.79126 33.1434 6.41836 32.8522C4.83977 31.6216 2.24192 31.3428 1.2937 29.2866C0.118188 26.7384 2.03061 24.9468 2.87585 22.7573C3.11734 22.1287 3.14042 21.9618 2.90248 21.3261C2.12117 19.2308 0.402299 17.7037 1.0966 15.2284C1.68968 13.1135 4.23248 12.4636 5.93182 11.4603C6.59593 11.0679 6.74509 11.0289 6.95107 10.244C7.49443 8.18241 7.17836 5.54372 9.15116 4.19242C11.124 2.84111 13.388 3.97223 15.5632 4.05747C15.9663 4.07345 16.2611 4.03438 16.5949 3.79999C18.2356 2.65289 19.3827 0.282333 21.6325 0.0195298C21.8474 -0.00532993 22.2789 -0.00532993 22.4937 0.0195298ZM21.6947 2.6156C21.5189 2.65111 21.3413 2.78607 21.1993 2.89438C19.9563 3.84793 18.5659 5.88998 17.1134 6.3783C15.1832 7.02821 13.1997 5.95391 11.3388 6.02494C10.6907 6.0498 10.2716 6.42269 10.1012 7.02821C9.6235 8.71512 9.79751 10.8477 8.78359 12.3287C7.76967 13.8096 5.38313 14.2944 3.9821 15.3562C3.53818 15.6936 3.35706 16.2281 3.50089 16.7715C3.89865 18.2844 5.47369 19.9801 5.61219 21.6244C5.79154 23.7606 4.08865 25.3268 3.52753 27.1877C3.35528 27.7595 3.50444 28.3011 3.9821 28.6615C5.38491 29.7234 7.74126 30.1673 8.78359 31.6891C9.86321 33.2695 9.54714 35.4358 10.1349 37.128C10.3498 37.746 10.8807 38.0088 11.5128 37.9928C14.2083 37.9307 16.0888 36.4551 18.5322 38.5451C19.381 39.2713 20.4126 40.6173 21.2934 41.2033C21.7977 41.5389 22.3925 41.5229 22.8808 41.166C24.186 40.2107 25.4805 38.1562 27.0111 37.6412C28.9413 36.9913 30.9248 38.0656 32.7857 37.9946C33.4338 37.9697 33.8529 37.5968 34.0233 36.9913C34.501 35.3044 34.327 33.1718 35.3409 31.6909C36.3548 30.2099 38.7414 29.7252 40.1424 28.6633C40.5863 28.3259 40.7674 27.7914 40.6236 27.2481C40.2259 25.7352 38.6508 24.0394 38.5123 22.3951C38.333 20.2589 40.0359 18.6928 40.597 16.8318C40.7692 16.2601 40.6201 15.7185 40.1424 15.358C38.7396 14.2961 36.3833 13.8522 35.3409 12.3304C34.2613 10.7501 34.5774 8.58372 33.9896 6.89148C33.757 6.22382 33.1977 6.0054 32.5282 6.03204C30.0174 6.1297 27.9966 7.47391 25.7255 5.59877C24.8128 4.84588 23.7723 3.4413 22.8329 2.81448C22.4813 2.58009 22.1137 2.52681 21.6965 2.61382L21.6947 2.6156Z" fill="white"/>
<path d="M30.1348 12.4104C31.3565 12.1564 32.2106 13.4811 31.4098 14.4542L14.4874 31.3357C13.2728 32.3124 11.7386 30.787 12.7188 29.5707L29.5968 12.7318C29.7371 12.6004 29.9466 12.4494 30.1348 12.4104Z" fill="white"/>
<path d="M21.6324 15.2444C21.6324 17.8085 19.5478 19.8878 16.9783 19.8878C14.4089 19.8878 12.3242 17.8085 12.3242 15.2444C12.3242 12.6803 14.4089 10.6009 16.9783 10.6009C19.5478 10.6009 21.6324 12.6803 21.6324 15.2444ZM19.0878 15.2479C19.0878 14.0848 18.1432 13.1419 16.9765 13.1419C15.8099 13.1419 14.8652 14.0848 14.8652 15.2479C14.8652 16.411 15.8099 17.3539 16.9765 17.3539C18.1432 17.3539 19.0878 16.411 19.0878 15.2479Z" fill="white"/>
<path d="M31.8019 28.7823C31.8019 31.3464 29.7172 33.4257 27.1478 33.4257C24.5783 33.4257 22.4937 31.3464 22.4937 28.7823C22.4937 26.2182 24.5783 24.1388 27.1478 24.1388C29.7172 24.1388 31.8019 26.2182 31.8019 28.7823ZM29.2608 28.7787C29.2608 27.6156 28.3162 26.6727 27.1495 26.6727C25.9829 26.6727 25.0382 27.6156 25.0382 28.7787C25.0382 29.9418 25.9829 30.8847 27.1495 30.8847C28.3162 30.8847 29.2608 29.9418 29.2608 28.7787Z" fill="white"/>
</g>
<defs>
<clipPath id="clip0_56759_13730">
<rect width="42.3291" height="44" fill="white" transform="translate(0.920898)"/>
</clipPath>
</defs>
</svg>
