<svg width="45" height="44" viewBox="0 0 45 44" fill="none" xmlns="http://www.w3.org/2000/svg">
<path d="M28.866 27.0732C32.4338 30.783 33.9526 39.1803 27.4196 40.3333H8.73672C2.95105 39.1552 3.79479 31.9361 6.6153 28.1009C8.27868 25.8449 11.1233 24.1655 13.8715 23.9649C16.2581 23.7895 20.1875 23.7895 22.5741 23.9649C24.8161 24.1655 27.275 25.4188 28.866 27.0732ZM13.8233 26.8225C11.5572 27.0732 9.26707 28.7526 8.15815 30.783C7.16976 32.6129 6.20549 36.5984 8.78493 37.4758L27.1785 37.551C29.4446 37.2502 29.3964 34.8939 29.0348 33.0641C28.3839 29.7553 25.5634 27.1734 22.3571 26.8225C19.609 26.998 16.5474 26.5468 13.8474 26.8225H13.8233Z" fill="white"/>
<path d="M28.264 12.8333C28.264 17.8908 24.1548 22 19.0973 22C14.0399 22 9.93066 17.8908 9.93066 12.8333C9.93066 7.77585 14.0399 3.66666 19.0973 3.66666C24.1548 3.66666 28.264 7.77585 28.264 12.8333ZM25.5407 12.8333C25.5407 9.28337 22.6716 6.41423 19.1216 6.41423C15.5717 6.41423 12.7025 9.28337 12.7025 12.8333C12.7025 16.3833 15.5717 19.2524 19.1216 19.2524C22.6716 19.2524 25.5407 16.3833 25.5407 12.8333Z" fill="white"/>
<path d="M30.5041 7.38066C31.5854 7.2387 33.2625 7.85388 34.1893 8.4454C38.8677 11.474 38.3822 19.0691 33.3729 21.3878C32.2033 21.932 30.5261 22.1923 29.2683 21.8374C27.7015 21.3878 28.0987 19.1637 29.5552 19.1874C30.791 19.1874 31.2764 19.495 32.5564 18.8325C36.2416 16.9396 35.4913 10.8825 31.475 10.078C30.813 9.93603 30.0848 10.149 29.6434 9.46281C29.0697 8.58736 29.5552 7.47531 30.5041 7.33334V7.38066Z" fill="white"/>
<path d="M31.0832 23.8831C31.8298 23.7416 33.1363 23.9303 33.9095 24.0954C37.509 24.8737 40.3353 27.6569 40.9219 30.8883C41.5618 34.5442 40.5753 37.0443 35.8559 36.6198C34.6561 36.5018 33.8295 35.5348 34.5494 34.5442C35.4027 33.412 37.6424 34.379 38.0156 33.7186C38.1223 33.5299 38.0956 32.1383 38.069 31.8553C37.829 29.1429 35.5093 26.9257 32.4964 26.5248C31.8565 26.4304 31.3765 26.5955 30.7366 26.2417C29.7234 25.6757 29.9634 24.0718 31.1099 23.8831H31.0832Z" fill="white"/>
</svg>
