<svg width="44" height="44" viewBox="0 0 44 44" fill="none" xmlns="http://www.w3.org/2000/svg">
<g clip-path="url(#clip0_3804_29965)">
<path d="M17.1002 0C17.5937 0.268737 17.9019 0.494962 18.04 1.0795C17.8214 3.61049 18.3483 6.68806 18.0476 9.15376C17.8609 10.6842 15.6533 10.6842 15.465 9.15376C15.1629 6.68806 15.6913 3.61049 15.4726 1.0795C15.6108 0.494962 15.919 0.268737 16.4124 0L17.1002 0Z" fill="#2563EB"/>
<path d="M0 17.1005V16.4127C0.268737 15.9192 0.494962 15.611 1.0795 15.4729C3.61049 15.6915 6.68806 15.1646 9.15376 15.4653C10.6842 15.652 10.6842 17.8596 9.15376 18.0479C6.68806 18.35 3.61049 17.8216 1.0795 18.0403C0.494962 17.9021 0.268737 17.5939 0 17.1005Z" fill="#2563EB"/>
<path d="M16.9092 15.7416C24.5311 18.101 32.1134 20.7018 39.6593 23.2875C40.2438 23.743 40.4245 24.5142 39.9462 25.1216L36.1809 28.9173L43.701 36.4343C44.0289 36.8261 44.0927 37.3514 43.871 37.8129L37.9801 43.7813C37.4851 44.088 36.9537 44.0744 36.48 43.7434L28.9189 36.1823L24.9683 40.0509C24.3504 40.4244 23.6565 40.1602 23.2511 39.6152L15.7629 17.1915C15.6885 16.4567 16.2093 15.8904 16.9108 15.7446L16.9092 15.7416ZM36.436 24.8361L19.1639 19.1638L24.8362 36.4358C24.9668 36.4708 24.979 36.4009 25.0518 36.3508C26.0266 35.6752 27.0302 34.084 28.0216 33.3902C28.5727 33.003 29.1907 32.9468 29.7373 33.3826L37.2543 40.9027L40.9043 37.2527L33.3842 29.7356C32.9484 29.1891 33.0061 28.5726 33.3918 28.02C34.0856 27.0285 35.6768 26.0265 36.3524 25.0502C36.4026 24.9773 36.4724 24.9652 36.4375 24.8346L36.436 24.8361Z" fill="#2563EB"/>
<path d="M10.889 20.9858C12.0065 20.7322 12.8355 21.6675 12.465 22.7333C10.7205 24.8422 8.60399 26.6748 6.69551 28.6516C5.38219 29.64 3.87149 28.1384 4.86293 26.8191C6.70917 25.1854 8.39599 22.9535 10.268 21.3957C10.4229 21.2667 10.7008 21.0298 10.889 20.9858Z" fill="#2563EB"/>
<path d="M5.47633 4.57461C5.98496 4.46985 6.34935 4.59891 6.7441 4.90105C8.60704 6.32216 10.35 8.82431 12.2008 10.3578C13.2469 11.703 11.7712 13.279 10.3576 12.201C8.49621 10.7829 6.75169 8.2762 4.9009 6.74425C4.24348 6.08683 4.54714 4.76744 5.47633 4.57461Z" fill="#2563EB"/>
<path d="M27.3895 4.57466C28.4736 4.37424 29.2388 5.29432 28.8774 6.32069C27.1329 8.42959 25.0164 10.2622 23.1079 12.239C21.7992 13.2137 20.2794 11.7577 21.2754 10.4064C22.6312 8.56624 25.2001 6.81717 26.6805 4.98307C26.8794 4.80695 27.1223 4.62476 27.3895 4.57617V4.57466Z" fill="#2563EB"/>
</g>
<defs>
<clipPath id="clip0_3804_29965">
<rect width="44" height="44" fill="white"/>
</clipPath>
</defs>
</svg>
