<svg width="45" height="32" viewBox="0 0 45 32" fill="none" xmlns="http://www.w3.org/2000/svg">
<path d="M21.1885 0.291748C30.1725 -0.295866 37.423 5.2305 42.3506 11.9753L42.8203 12.6316L43.2637 13.2722C43.4535 13.5504 43.6724 13.8768 43.8818 14.2019C44.091 14.5266 44.2931 14.8537 44.4473 15.1316C44.5242 15.2702 44.5913 15.4002 44.6416 15.5134C44.6892 15.6205 44.7313 15.7334 44.7441 15.8318C44.7703 16.0314 44.7071 16.2587 44.626 16.4636C44.5412 16.6777 44.42 16.9091 44.291 17.1316C44.0357 17.5719 43.7235 18.0216 43.5732 18.2576H43.5723C39.8163 24.1213 33.8691 29.7254 26.7588 31.28C16.3653 33.5525 7.73363 27.2899 2.18262 19.3699L2.18164 19.3689C1.9976 19.1041 1.5414 18.4487 1.12305 17.7986C0.914018 17.4737 0.712695 17.1467 0.558594 16.8689C0.481634 16.7302 0.414638 16.6002 0.364258 16.4871C0.316704 16.3803 0.273596 16.2678 0.260742 16.1697L0.254883 16.0935C0.250561 15.9134 0.308861 15.7173 0.379883 15.5378C0.464629 15.3238 0.584869 15.0924 0.713867 14.8699C0.969193 14.4295 1.28235 13.9799 1.43262 13.7439L1.84375 13.116C6.16858 6.65271 12.9839 0.828772 21.1885 0.291748ZM41.9307 15.9705C37.6587 9.1131 30.7566 2.60265 22.1387 2.81421L21.9043 2.82397C13.6577 3.14555 7.1314 9.3721 3.07422 16.0291C7.92022 23.8074 15.7593 30.6397 25.6191 28.8875C31.7979 27.7883 37.0304 23.0744 40.5459 18.1111L40.9307 17.5554C41.2814 17.0374 41.6144 16.5074 41.9307 15.9705Z" fill="#2563EB" stroke="#2563EB" stroke-width="0.5"/>
<path d="M22.5039 8.52051C26.6886 8.52051 30.0877 11.8657 30.0879 15.999C30.0879 20.1326 26.6888 23.4785 22.5039 23.4785C18.3191 23.4784 14.9199 20.1325 14.9199 15.999C14.9201 11.8657 18.3193 8.5206 22.5039 8.52051ZM22.502 11.0898C19.7459 11.0898 17.5178 13.2913 17.5176 15.999C17.5176 18.7069 19.7457 20.9092 22.502 20.9092C25.258 20.909 27.4863 18.7068 27.4863 15.999C27.4861 13.2914 25.2579 11.09 22.502 11.0898Z" fill="#2563EB" stroke="#2563EB" stroke-width="0.5"/>
</svg>
