<svg width="24" height="23" viewBox="0 0 24 23" fill="none" xmlns="http://www.w3.org/2000/svg">
<path d="M21.3672 -0.150391L21.375 -0.149414C22.7464 -0.000753853 23.924 0.920262 24.0684 2.37012L24.1084 2.84668C24.1842 3.96958 24.1421 5.15823 24.0938 6.3418C24.0383 7.69865 23.9755 9.0488 24.0693 10.3076H24.0674C24.0808 10.3921 24.0641 10.4779 24.0381 10.5498C24.0086 10.6312 23.9633 10.7126 23.9121 10.7842C23.861 10.8556 23.8006 10.9235 23.7363 10.9746C23.6773 11.0215 23.5927 11.0723 23.498 11.0723H20.0596V18.8135C20.0596 19.6407 19.684 20.4386 19.1143 21.0459C18.5447 21.653 17.7702 22.0809 16.957 22.1582L16.9424 22.1602V22.1592L2.88477 22.1738H2.87305L2.86133 22.1719C1.29714 21.9265 0.040028 20.7198 -0.121094 19.1074L-0.134766 18.8711C-0.146698 18.5605 -0.152748 18.0501 -0.149414 17.5576C-0.147176 17.2273 -0.140001 16.9007 -0.12793 16.6426C-0.121904 16.5138 -0.114745 16.4 -0.105469 16.3105C-0.100843 16.266 -0.0959357 16.2255 -0.0898438 16.1914C-0.0843268 16.1606 -0.0761769 16.1238 -0.0625 16.0928H-0.0615234C-0.0507623 16.0684 -0.0349926 16.0464 -0.0263672 16.0352C-0.0151065 16.0205 -0.00195301 16.0047 0.0117188 15.9893C0.039805 15.9575 0.0748417 15.9213 0.108398 15.8877C0.141868 15.8542 0.175763 15.821 0.204102 15.7959C0.217984 15.7836 0.232984 15.7716 0.246094 15.7617C0.252321 15.757 0.260599 15.75 0.270508 15.7441C0.275423 15.7412 0.283941 15.7375 0.293945 15.7334C0.301162 15.7304 0.323629 15.7217 0.353516 15.7217H3.23926C3.25781 14.225 3.24496 12.7273 3.23242 11.2275C3.21948 9.67903 3.20854 8.12814 3.23535 6.57812L3.25391 6.3916C3.2641 6.33239 3.27732 6.27637 3.28906 6.22461C3.31371 6.11596 3.33347 6.02421 3.33496 5.93164L3.33398 5.52441C3.32604 5.10691 3.29905 4.65844 3.28125 4.19629C3.25773 3.58538 3.25088 2.95501 3.33203 2.37207C3.41322 1.78915 3.58387 1.24094 3.9248 0.801758C4.26849 0.359023 4.77552 0.0403035 5.50195 -0.100586L5.5166 -0.103516H5.53027L21.3584 -0.150391H21.3672ZM1.20312 18.999C1.20312 19.3698 1.45731 19.8353 1.83887 20.2178C2.22024 20.6 2.68548 20.8553 3.05957 20.8555H13.8887C13.8684 20.8169 13.8474 20.7743 13.8223 20.7305C13.7469 20.5988 13.6601 20.4599 13.5723 20.3115C13.4865 20.1666 13.4016 20.0166 13.3379 19.877C13.276 19.7412 13.2256 19.5962 13.2256 19.4668V17.1006L13.1738 17.0498H1.20312V18.999ZM5.86328 1.18164C5.59203 1.18164 5.29496 1.33132 5.05859 1.56934C4.82263 1.80696 4.66846 2.11086 4.65918 2.38965L4.56738 15.7217H14.0791C14.1358 15.7218 14.1805 15.7461 14.207 15.7646C14.2357 15.7847 14.2612 15.8101 14.2822 15.834C14.3246 15.8823 14.3655 15.9442 14.4004 16.0049C14.4357 16.0663 14.4687 16.1319 14.4941 16.1924C14.5184 16.2502 14.5406 16.3132 14.5488 16.3652V16.3662C14.6391 16.9418 14.5614 17.5879 14.542 18.1758C14.5221 18.7787 14.5594 19.3402 14.8467 19.8223C15.8573 21.5116 18.4216 20.9014 18.6455 18.9902C18.7894 16.3553 18.6911 13.6119 18.6045 10.8652C18.5179 8.12005 18.4434 5.37196 18.6387 2.74219V2.74121C18.6845 2.13989 18.8446 1.68739 19.04 1.18164H5.86328ZM22.5625 1.99121C22.1398 1.114 20.9036 1.02628 20.3086 1.82129L20.3057 1.8252L20.3047 1.82422C20.2848 1.84953 20.2214 1.95073 20.1572 2.05762C20.1263 2.10917 20.0978 2.15874 20.0771 2.19629C20.0698 2.2097 20.064 2.22083 20.0596 2.22949V9.65527H22.7441V2.49219C22.7438 2.49111 22.7435 2.48959 22.7432 2.48828C22.7395 2.4755 22.7341 2.4573 22.7266 2.43457C22.7115 2.38904 22.691 2.3297 22.6689 2.26855C22.6235 2.1426 22.5765 2.02159 22.5625 1.99219V1.99121Z" fill="white" stroke="white" stroke-width="0.3"/>
<path d="M6.6268 8.42303L16.3209 8.48731C16.603 8.77295 16.603 9.0586 16.3209 9.34068L6.79104 9.42994L6.37328 9.28712C6.11977 8.97648 6.20904 8.5123 6.6268 8.42303Z" fill="white"/>
<path d="M6.39865 12.2543C6.51291 12.1472 6.73072 12.1472 6.88425 12.1329C9.77286 11.8829 13.015 12.3293 15.9428 12.1329C16.2606 12.14 16.5034 12.3257 16.5391 12.647C16.4963 12.9113 16.3285 13.1719 16.0357 13.1648L6.40936 13.0755C6.18799 12.8684 6.18085 12.4542 6.39508 12.2507L6.39865 12.2543Z" fill="white"/>
<path d="M6.53398 4.6882L11.8327 4.67392C12.0755 4.7132 12.2112 4.95957 12.2469 5.18451C12.2184 5.47016 12.0148 5.6594 11.7363 5.69154C10.1796 5.56657 8.31213 5.88078 6.79463 5.69868C6.14836 5.6237 6.04124 5.04883 6.53398 4.6882Z" fill="white"/>
</svg>
