<svg width="16" height="19" viewBox="0 0 16 19" fill="none" xmlns="http://www.w3.org/2000/svg">
<g clip-path="url(#clip0_56759_32671)">
<path d="M12.9432 18.5H3.05699C3.02708 18.4888 2.99716 18.4701 2.96351 18.4626C2.08857 18.328 1.41179 17.8793 0.981793 17.1165C0.794838 16.7875 0.712578 16.3949 0.585449 16.0285C0.585449 13.613 0.585449 11.1938 0.585449 8.77835C0.596667 8.74844 0.615362 8.71479 0.62284 8.68488C0.757448 7.80993 1.21736 7.15559 1.96144 6.69568C2.38769 6.43394 2.86256 6.32177 3.35238 6.29934C3.3636 6.27316 3.37107 6.26194 3.37481 6.25073C3.37481 6.20212 3.38229 6.15351 3.37855 6.10864C3.3636 5.27856 3.4122 4.45222 3.67394 3.6558C4.16002 2.17511 5.0948 1.13191 6.62409 0.690694C6.93817 0.597216 7.26721 0.559826 7.58877 0.5C7.86173 0.5 8.13842 0.5 8.41137 0.5C8.4712 0.514956 8.53102 0.533652 8.59085 0.537391C9.7911 0.66452 10.7894 1.17304 11.5335 2.13025C12.2589 3.06128 12.5468 4.14562 12.6104 5.301C12.6291 5.6263 12.6104 5.95534 12.6104 6.29186C12.6814 6.29934 12.73 6.30307 12.7749 6.30681C13.9527 6.41899 14.7791 7.01724 15.2277 8.10906C15.3212 8.3334 15.3549 8.58018 15.4147 8.81575V15.9836C15.3997 16.0359 15.3848 16.0883 15.3736 16.1406C15.1904 17.1726 14.6108 17.8943 13.6461 18.2943C13.4218 18.3878 13.1787 18.429 12.9432 18.4963V18.5ZM7.97764 16.8922C8.73294 16.8922 9.48823 16.8922 10.2435 16.8922C10.9988 16.8922 11.7691 16.8922 12.5281 16.8922C13.3058 16.8922 13.8031 16.3949 13.8031 15.6209C13.8031 13.4597 13.8031 11.2948 13.8031 9.13357C13.8031 8.44558 13.2834 7.91462 12.5992 7.91462C9.52936 7.91462 6.46331 7.91462 3.39351 7.91462C2.71673 7.91462 2.19326 8.43436 2.18952 9.11113C2.18578 11.3097 2.18578 13.5046 2.18952 15.7032C2.18952 16.0696 2.33908 16.3799 2.62326 16.6192C2.85882 16.8174 3.13925 16.8959 3.44212 16.8922C4.95271 16.8922 6.46331 16.8922 7.9739 16.8922H7.97764ZM10.6548 6.29934C10.6324 5.83569 10.6361 5.387 10.5838 4.94952C10.5202 4.3737 10.3407 3.82779 9.98179 3.35667C9.54806 2.78833 8.9498 2.54155 8.25807 2.49294C7.36443 2.42937 6.55678 2.63502 5.99966 3.39406C5.36401 4.26153 5.32288 5.27108 5.36401 6.29934H10.6511H10.6548Z" fill="black"/>
<path d="M7.34081 13.7105C7.34081 13.6357 7.33707 13.5609 7.34081 13.4824C7.36324 13.1459 7.33333 12.8729 7.03046 12.6074C6.6042 12.2373 6.57055 11.5867 6.83977 11.1118C7.12768 10.6033 7.67733 10.3341 8.22323 10.4313C8.77662 10.5322 9.22905 10.9697 9.30757 11.5268C9.37861 12.0316 9.21409 12.4616 8.80279 12.7719C8.68688 12.8579 8.65697 12.9477 8.66071 13.0786C8.66819 13.5048 8.66445 13.9311 8.66071 14.3536C8.66071 14.7424 8.38401 15.0304 8.01758 15.0341C7.63246 15.0341 7.34828 14.7537 7.34455 14.3611C7.34455 14.1405 7.34455 13.9236 7.34455 13.703L7.34081 13.7105Z" fill="black"/>
</g>
<defs>
<clipPath id="clip0_56759_32671">
<rect width="14.8292" height="18" fill="white" transform="translate(0.585449 0.5)"/>
</clipPath>
</defs>
</svg>
