<svg width="24" height="24" viewBox="0 0 24 24" fill="none" xmlns="http://www.w3.org/2000/svg">
<g clip-path="url(#clip0_56759_13769)">
<path d="M18.5912 24H5.40965C5.36976 23.985 5.32988 23.9601 5.28501 23.9501C4.11841 23.7707 3.21604 23.1724 2.64272 22.1554C2.39344 21.7167 2.28376 21.1932 2.11426 20.7046C2.11426 17.484 2.11426 14.2584 2.11426 11.0378C2.12921 10.9979 2.15414 10.9531 2.16411 10.9132C2.34359 9.74657 2.9568 8.87412 3.94891 8.26091C4.51725 7.91192 5.1504 7.76236 5.8035 7.73245C5.81845 7.69755 5.82842 7.68259 5.83341 7.66764C5.83341 7.60283 5.84338 7.53801 5.8384 7.47819C5.81845 6.37142 5.88326 5.26963 6.23225 4.20773C6.88036 2.23349 8.12672 0.842543 10.1658 0.254258C10.5846 0.129622 11.0233 0.0797673 11.452 0C11.816 0 12.1849 0 12.5488 0C12.6286 0.0199418 12.7084 0.0448691 12.7881 0.0498546C14.3885 0.21936 15.7196 0.897383 16.7117 2.17366C17.6789 3.41504 18.0627 4.86082 18.1475 6.40133C18.1724 6.83506 18.1475 7.27378 18.1475 7.72248C18.2422 7.73245 18.307 7.73743 18.3669 7.74242C19.9373 7.89198 21.0391 8.68966 21.6373 10.1454C21.762 10.4445 21.8068 10.7736 21.8866 11.0877V20.6448C21.8666 20.7146 21.8467 20.7844 21.8317 20.8542C21.5875 22.2302 20.8147 23.1924 19.5285 23.7258C19.2293 23.8504 18.9053 23.9053 18.5912 23.995V24ZM11.9705 21.8563C12.9776 21.8563 13.9846 21.8563 14.9917 21.8563C15.9988 21.8563 17.0258 21.8563 18.0378 21.8563C19.0748 21.8563 19.7379 21.1932 19.7379 20.1612C19.7379 17.2796 19.7379 14.393 19.7379 11.5114C19.7379 10.5941 19.0449 9.88617 18.1325 9.88617C14.0395 9.88617 9.9514 9.88617 5.85834 9.88617C4.95597 9.88617 4.25801 10.5791 4.25302 11.4815C4.24803 14.413 4.24803 17.3394 4.25302 20.2709C4.25302 20.7595 4.45244 21.1732 4.83133 21.4923C5.14542 21.7565 5.51933 21.8612 5.92315 21.8563C7.93727 21.8563 9.9514 21.8563 11.9655 21.8563H11.9705ZM15.5401 7.73245C15.5102 7.11425 15.5152 6.516 15.4454 5.9327C15.3606 5.16494 15.1213 4.43706 14.6427 3.80889C14.0644 3.0511 13.2667 2.72206 12.3444 2.65725C11.1529 2.5725 10.076 2.8467 9.3332 3.85875C8.48567 5.01537 8.43083 6.36145 8.48567 7.73245H15.5351H15.5401Z" fill="black"/>
<path d="M11.1214 17.6136C11.1214 17.5139 11.1164 17.4142 11.1214 17.3095C11.1513 16.8608 11.1114 16.4969 10.7076 16.1429C10.1393 15.6494 10.0944 14.7819 10.4533 14.1488C10.8372 13.4707 11.5701 13.1118 12.298 13.2414C13.0358 13.376 13.6391 13.9593 13.7438 14.7021C13.8385 15.3752 13.6191 15.9485 13.0707 16.3623C12.9162 16.477 12.8763 16.5966 12.8813 16.7711C12.8912 17.3394 12.8863 17.9078 12.8813 18.4711C12.8813 18.9896 12.5123 19.3735 12.0238 19.3785C11.5103 19.3785 11.1314 19.0046 11.1264 18.4811C11.1264 18.187 11.1264 17.8978 11.1264 17.6037L11.1214 17.6136Z" fill="black"/>
</g>
<defs>
<clipPath id="clip0_56759_13769">
<rect width="19.7723" height="24" fill="white" transform="translate(2.11426)"/>
</clipPath>
</defs>
</svg>
