<svg width="139" height="50" viewBox="0 0 139 50" fill="none" xmlns="http://www.w3.org/2000/svg">
<path d="M71.9293 31.9816C71.9293 32.4634 71.4959 32.8968 71.0141 32.8968C70.5806 32.8968 70.2914 32.6559 70.0988 32.2709L68.8223 29.4047H60.6583L59.4538 32.2709C59.2849 32.6559 58.9719 32.8968 58.5622 32.8968C58.0567 32.8968 57.647 32.4634 57.647 31.9816C57.647 31.8128 57.6954 31.6202 57.7911 31.3793L63.8837 17.1227C64.0762 16.6893 64.3655 16.4721 64.7753 16.4721C65.185 16.4721 65.4733 16.6883 65.6668 17.1227L71.7594 31.3793C71.8799 31.6202 71.9283 31.8128 71.9283 31.9816H71.9293ZM61.3573 27.7194H68.1006L64.7773 19.2909L61.3573 27.7194Z" fill="white"/>
<path d="M75.9034 24.6845C75.9034 20.0609 79.5159 16.4721 84.1641 16.4721C86.6442 16.4721 89.1006 17.6282 90.4256 19.4103C90.6181 19.6749 90.7149 19.8674 90.7149 20.1083C90.7149 20.5417 90.3298 20.9515 89.8233 20.9515C89.5103 20.9515 89.2694 20.8547 88.9565 20.4944C87.511 18.9048 86.0903 18.2068 84.1641 18.2068C80.5279 18.2068 77.8543 20.9525 77.8543 24.6608C77.8543 28.3691 80.5753 31.2115 84.2599 31.2115C86.4754 31.2115 88.4263 30.2006 89.5577 28.5142V26.2267H85.0299C84.4761 26.2267 84.0426 25.8416 84.0426 25.3835C84.0426 24.9017 84.4761 24.5403 85.0299 24.5403H90.4482C91.0021 24.5403 91.4355 24.9501 91.4355 25.5276V28.1045C91.4355 28.5863 91.3151 28.996 91.0505 29.4047C89.5814 31.5719 86.9325 32.8968 84.1631 32.8968C79.5149 32.8968 75.9023 29.309 75.9023 24.6845H75.9034Z" fill="white"/>
<path d="M97.313 31.9095V17.4594C97.313 16.9055 97.698 16.4721 98.2519 16.4721C98.8058 16.4721 99.1908 16.9055 99.1908 17.4594V31.9095C99.1908 32.4634 98.7811 32.8968 98.2519 32.8968C97.7227 32.8968 97.313 32.4634 97.313 31.9095Z" fill="white"/>
<path d="M105.959 31.6449V17.4594C105.959 16.9055 106.344 16.4721 106.897 16.4721C107.451 16.4721 107.836 16.9055 107.836 17.4594V30.9459H114.603C115.109 30.9459 115.47 31.3073 115.47 31.7891C115.47 32.2709 115.109 32.6322 114.603 32.6322H106.945C106.367 32.6322 105.958 32.1988 105.958 31.6449H105.959Z" fill="white"/>
<path d="M120.553 31.9095V17.4594C120.553 16.9055 120.938 16.4721 121.492 16.4721C122.046 16.4721 122.431 16.9055 122.431 17.4594V31.9095C122.431 32.4634 122.021 32.8968 121.492 32.8968C120.962 32.8968 120.553 32.4634 120.553 31.9095Z" fill="white"/>
<path d="M128.476 30.1758C128.332 30.007 128.259 29.8145 128.259 29.5983C128.259 29.1165 128.669 28.7314 129.15 28.7314C129.44 28.7314 129.681 28.8519 129.873 29.0928C130.932 30.4414 132.281 31.1642 133.823 31.1642C135.749 31.1642 137.026 30.0801 137.026 28.5152C137.026 27.3354 136.424 26.6848 134.377 25.7212L132.595 24.878C130.067 23.6735 129.006 22.3979 129.006 20.6158C129.006 18.2315 131.053 16.4731 133.799 16.4731C135.581 16.4731 137.074 17.1474 138.181 18.3756C138.446 18.6649 138.519 18.9295 138.519 19.1467C138.519 19.5802 138.085 19.9899 137.627 19.9899C137.386 19.9899 137.17 19.8695 136.977 19.6769C136.11 18.7133 135.002 18.2078 133.774 18.2078C132.088 18.2078 130.956 19.1231 130.956 20.5201C130.956 21.6515 131.462 22.2054 133.509 23.1937L135.268 24.0369C137.941 25.3135 138.976 26.5654 138.976 28.4679C138.976 31.0684 136.881 32.8989 133.846 32.8989C131.799 32.8989 129.728 31.8632 128.475 30.1779L128.476 30.1758Z" fill="white"/>
<path d="M39.4721 4.86543H10.5285C7.40078 4.86543 4.86523 7.40098 4.86523 10.5287V39.4723C4.86523 42.6 7.40078 45.1356 10.5285 45.1356H39.4721C42.5998 45.1356 45.1354 42.6 45.1354 39.4723V10.5287C45.1354 7.40098 42.5998 4.86543 39.4721 4.86543Z" fill="url(#paint0_linear_56759_13750)"/>
<path d="M50 9.55792V9.55277C50 8.24324 49.7323 6.98107 49.2474 5.83626C48.5196 4.11698 47.312 2.66435 45.7883 1.63485C45.0265 1.12009 44.1833 0.710351 43.2825 0.430326C42.3837 0.1503 41.4273 -7.62939e-06 40.4462 -7.62939e-06H40.4431C40.4421 -7.62939e-06 40.441 -7.62939e-06 40.438 -7.62939e-06H9.55587C8.24531 -7.62939e-06 6.98211 0.267664 5.83627 0.752561C4.11699 1.48042 2.66436 2.68803 1.63485 4.2117C1.1201 4.97353 0.710359 5.8167 0.430333 6.71752C0.150308 7.6173 0 8.57371 0 9.55483V9.55586V9.55792V40.4451C0 41.7557 0.267671 43.0189 0.752569 44.1637C1.48043 45.883 2.68804 47.3356 4.21171 48.3651C4.97354 48.8799 5.81671 49.2896 6.71752 49.5697C7.59775 49.8435 8.53254 49.9918 9.49204 49.999H9.50337L40.4421 50H40.4513C41.7588 49.999 43.02 49.7313 44.1637 49.2474C45.883 48.5196 47.3356 47.312 48.3651 45.7883C48.8799 45.0265 49.2896 44.1833 49.5697 43.2825C49.8466 42.393 49.9959 41.4489 49.999 40.4791V40.4627V9.55792H50ZM46.7272 44.6816C45.9098 45.8912 44.7557 46.8497 43.3926 47.4262C42.4867 47.8102 41.485 48.0223 40.4441 48.0223H40.441H9.55793H9.55587C8.77551 48.0223 8.01573 47.9029 7.30331 47.6815C6.58987 47.4592 5.92172 47.1359 5.3174 46.7272C4.10773 45.9098 3.14926 44.7557 2.57273 43.3926C2.18873 42.4867 1.97665 41.485 1.97665 40.4441V9.55586C1.97665 8.7755 2.09607 8.01675 2.31742 7.30433C2.53979 6.59089 2.86305 5.92274 3.27177 5.31842C4.0892 4.10875 5.24224 3.15028 6.60634 2.57376C7.5123 2.18975 8.51401 1.97767 9.55381 1.97767H40.4441C41.2245 1.97767 41.9832 2.0971 42.6957 2.31844C43.4091 2.54081 44.0773 2.86408 44.6816 3.27279C45.8912 4.09022 46.8497 5.24326 47.4262 6.60736C47.8102 7.51332 48.0223 8.51503 48.0223 9.55586V9.56101V40.439C48.0223 40.439 48.0223 40.439 48.0223 40.44V40.4441C48.0223 41.2245 47.9029 41.9843 47.6815 42.6956C47.4592 43.4091 47.1359 44.0772 46.7272 44.6816Z" fill="white"/>
<path d="M39.176 14.5572C38.8342 13.6574 38.3102 12.7947 37.6029 11.9907C36.8215 11.1012 35.965 10.4433 35.0621 10.013C34.1602 9.58161 33.2151 9.38292 32.2845 9.38395C31.0192 9.38395 29.7889 9.74427 28.6534 10.3331C27.4612 10.9529 26.3648 11.8239 25.4074 12.8441C24.977 12.3747 24.5148 11.9392 24.0186 11.55C23.2804 10.9714 22.4702 10.4938 21.5982 10.1592C20.7272 9.82457 19.7935 9.63617 18.8237 9.63617C17.8961 9.63617 16.9376 9.81016 15.9802 10.1787C15.0217 10.5473 14.0643 11.1104 13.1202 11.8795C12.0084 12.7844 11.1878 13.9189 10.6576 15.1862C10.1264 16.4546 9.88037 17.8527 9.88037 19.3125C9.88346 22.2898 10.8913 25.5348 12.6909 28.6367C14.4936 31.7376 17.0982 34.6995 20.3546 37.0694C22.3817 38.5447 24.662 39.7883 27.1565 40.6871C27.6558 40.8673 28.2066 40.6078 28.3857 40.1085C28.5659 39.6092 28.3065 39.0584 27.8072 38.8793C25.4939 38.0464 23.3741 36.8903 21.485 35.5159C18.451 33.3086 16.0162 30.5372 14.3515 27.6721C12.6847 24.808 11.7983 21.8502 11.8004 19.3125C11.8004 18.0678 12.0104 16.9261 12.4284 15.9285C12.8474 14.9309 13.4692 14.0733 14.332 13.3692C15.1391 12.7113 15.9205 12.2604 16.6689 11.9721C17.4174 11.6839 18.1319 11.5583 18.8216 11.5572C19.7811 11.5572 20.6984 11.8033 21.5694 12.2491C22.5165 12.7329 23.4009 13.4618 24.1689 14.3451C23.0261 15.9367 22.1922 17.7353 21.8525 19.5235C21.8103 19.7439 21.7907 19.9652 21.7907 20.1814C21.7907 21.1306 22.1758 22.0077 22.8038 22.645C23.1178 22.9642 23.4956 23.2256 23.9187 23.4068C24.3418 23.588 24.8113 23.6889 25.3003 23.6889C25.7893 23.6889 26.2598 23.588 26.6819 23.4068C27.3171 23.134 27.8473 22.6841 28.22 22.1251C28.5927 21.5661 28.8099 20.8938 28.8099 20.1824C28.8099 19.9652 28.7893 19.7449 28.7481 19.5246C28.5206 18.319 28.1067 17.1145 27.5395 15.9769C27.2636 15.4251 26.9516 14.8887 26.6057 14.375C27.0958 13.8283 27.627 13.33 28.1829 12.9049C28.8408 12.4004 29.5316 11.9979 30.2234 11.724C30.9163 11.4502 31.6071 11.306 32.2793 11.306C32.9403 11.306 33.5858 11.4419 34.2292 11.7487C34.8727 12.0555 35.5192 12.5384 36.1534 13.26C36.7216 13.9076 37.117 14.5685 37.3733 15.2418C37.6297 15.9162 37.7501 16.607 37.7501 17.3245C37.7501 17.9793 37.6482 18.6567 37.4505 19.3516C37.1056 20.5675 36.4612 21.8348 35.5779 23.0908C34.2539 24.9758 32.3957 26.8289 30.2738 28.4679C28.152 30.1079 25.7656 31.5348 23.3978 32.5921C22.9129 32.8083 22.6957 33.3766 22.9119 33.8615C23.128 34.3464 23.6963 34.5636 24.1812 34.3474C28.0131 32.6343 31.8253 30.0533 34.7275 27.0863C36.1781 25.6007 37.4011 24.0173 38.2741 22.3784C38.7106 21.5589 39.0586 20.7239 39.2995 19.8787C39.5394 19.0345 39.6722 18.18 39.6722 17.3256C39.6722 16.3908 39.5126 15.458 39.1698 14.5593L39.176 14.5572ZM26.8652 19.8808C26.8847 19.9837 26.894 20.0836 26.894 20.1824C26.894 20.6086 26.721 21.005 26.4338 21.2974C26.2907 21.4425 26.1198 21.5609 25.9304 21.6412C25.7409 21.7226 25.533 21.7679 25.3055 21.7679C25.0779 21.7679 24.87 21.7226 24.6805 21.6412C24.3974 21.5198 24.1545 21.3149 23.9846 21.0596C23.8147 20.8032 23.718 20.5026 23.718 20.1824C23.718 20.0836 23.7272 19.9837 23.7468 19.8818C23.9321 18.8945 24.3233 17.8455 24.872 16.8376C25.0254 16.5545 25.1922 16.2755 25.3693 16.0016C26.0982 17.2185 26.6201 18.5723 26.8662 19.8808H26.8652Z" fill="white"/>
<defs>
<linearGradient id="paint0_linear_56759_13750" x1="6.36008" y1="7.09946" x2="43.3492" y2="42.6205" gradientUnits="userSpaceOnUse">
<stop stop-color="#FB00FF"/>
<stop offset="1" stop-color="#FFDE12"/>
</linearGradient>
</defs>
</svg>
