<svg width="24" height="24" viewBox="0 0 24 24" fill="none" xmlns="http://www.w3.org/2000/svg">
<g clip-path="url(#clip0_56866_145)">
<g clip-path="url(#clip1_56866_145)">
<path d="M15.1142 12.5161C15.7508 12.7312 17.3852 13.3247 17.54 14.0129C17.6949 14.7011 17.1873 15.5183 16.4131 15.4494C15.9056 15.3978 14.6067 14.5634 13.9443 14.3484C9.19594 12.8172 3.94003 15.5011 2.54648 20.2839C2.2368 21.3505 2.33143 22.1935 2.14218 23.1398C1.90992 24.2925 0.14648 24.3269 0.0174478 22.9677C-0.369649 18.7613 3.0282 13.9785 6.95078 12.6193C6.97659 12.4817 6.96799 12.4903 6.88196 12.4043C6.38304 11.9312 5.93573 11.6903 5.47981 11.0796C1.72067 6.08171 6.09057 -0.954854 12.1895 0.111812C16.4045 0.842995 18.9422 5.28171 17.4626 9.30751C16.9895 10.5978 16.1121 11.6043 15.1142 12.5161ZM15.725 6.91611C15.725 4.30966 13.6088 2.19353 11.0024 2.19353C8.39594 2.19353 6.27981 4.30966 6.27981 6.91611C6.27981 9.52257 8.39594 11.6387 11.0024 11.6387C13.6088 11.6387 15.725 9.52257 15.725 6.91611Z" fill="white"/>
<path d="M21.7119 15.286C22.7355 15.0537 23.2861 15.8537 23.0194 16.8C21.4796 18.7871 20.2409 21.4451 18.6667 23.3548C18.2366 23.8795 17.9011 24.1032 17.1871 23.8537L13.5398 21.3849C12.9807 20.6795 13.514 19.6129 14.3656 19.5871C15.157 19.5612 16.4216 20.9376 17.1527 21.2301C17.2646 21.2731 17.342 21.3247 17.4538 21.2301L21.0839 15.7849C21.2474 15.5871 21.4452 15.3462 21.7119 15.286Z" fill="white"/>
</g>
</g>
<defs>
<clipPath id="clip0_56866_145">
<rect width="24" height="24" fill="white"/>
</clipPath>
<clipPath id="clip1_56866_145">
<rect width="23.0882" height="24" fill="white"/>
</clipPath>
</defs>
</svg>
