<svg width="16" height="18" viewBox="0 0 16 18" fill="none" xmlns="http://www.w3.org/2000/svg">
<g clip-path="url(#clip0_56839_1005)">
<path d="M9.43864 7.47085H14.598C14.6594 7.47085 15.0624 7.58098 15.1469 7.61769C16.0644 7.98069 16.2793 9.3185 15.5999 10.0649C15.3964 10.2892 14.8782 10.5258 14.598 10.5258H9.43864V16.0076C9.43864 16.0728 9.335 16.5011 9.30045 16.5908C8.9588 17.5656 7.69968 17.794 6.99719 17.0721C6.78605 16.8559 6.56341 16.3053 6.56341 16.0076V10.5258H1.40026C1.33884 10.5258 0.935765 10.4157 0.851312 10.379C-0.066154 10.016 -0.281125 8.67815 0.398337 7.93175C0.601792 7.70742 1.12003 7.47085 1.40026 7.47085H6.55957V1.98909C6.55957 1.92383 6.66321 1.49557 6.69776 1.40583C7.11235 0.231171 8.83212 0.186305 9.28125 1.36097C9.32348 1.47109 9.43864 1.90344 9.43864 1.99317V7.47493V7.47085Z" fill="white"/>
</g>
<defs>
<clipPath id="clip0_56839_1005">
<rect width="16" height="17" fill="white" transform="translate(-0.000976562 0.5)"/>
</clipPath>
</defs>
</svg>
