<svg width="100" height="100" viewBox="0 0 100 100" fill="none" xmlns="http://www.w3.org/2000/svg">
<path d="M96.4793 49.9987C98.0236 48.2003 99.1059 46.0522 99.6321 43.7408C100.158 41.4295 100.113 39.0246 99.4991 36.7348C98.8856 34.4451 97.7225 32.3396 96.111 30.6011C94.4995 28.8626 92.4882 27.5435 90.2515 26.7583C90.6898 24.4285 90.5529 22.027 89.8529 19.7621C89.1529 17.4972 87.9108 15.4373 86.2344 13.7611C84.558 12.0849 82.4979 10.8431 80.2329 10.1433C77.9679 9.4436 75.5664 9.30709 73.2367 9.74564C72.4521 7.50842 71.1332 5.49652 69.3947 3.88462C67.6561 2.27272 65.5504 1.10954 63.2603 0.496083C60.9703 -0.117379 58.5651 -0.162585 56.2535 0.364389C53.942 0.891363 51.7941 1.97459 49.9962 3.52002C48.1978 1.97565 46.0497 0.893402 43.7383 0.367156C41.4269 -0.15909 39.022 -0.113438 36.7323 0.50015C34.4425 1.11374 32.3371 2.27673 30.5986 3.88824C28.86 5.49975 27.541 7.5111 26.7558 9.74781C24.4261 9.30996 22.0249 9.44709 19.7603 10.1473C17.4956 10.8475 15.4361 12.0897 13.7601 13.766C12.0842 15.4423 10.8426 17.5022 10.143 19.767C9.44334 22.0318 9.30683 24.4331 9.74527 26.7626C7.50856 27.5478 5.4972 28.8669 3.88569 30.6054C2.27418 32.344 1.11119 34.4494 0.497598 36.7392C-0.11599 39.0289 -0.161649 41.4338 0.364597 43.7452C0.890843 46.0566 1.97311 48.2046 3.51748 50.0031C1.97264 51.8014 0.890041 53.9497 0.363645 56.2613C-0.162751 58.5729 -0.117053 60.9781 0.496804 63.268C1.11066 65.558 2.27411 67.6635 3.88617 69.4019C5.49823 71.1403 7.51021 72.459 9.74744 73.2435C9.30862 75.5731 9.44497 77.9746 10.1447 80.2395C10.8444 82.5044 12.0864 84.5643 13.7627 86.2404C15.439 87.9165 17.4991 89.1582 19.7641 89.8576C22.0291 90.5571 24.4306 90.6931 26.7601 90.254C27.5453 92.4907 28.8644 94.5021 30.6029 96.1136C32.3414 97.7251 34.4469 98.8881 36.7366 99.5017C39.0264 100.115 41.4312 100.161 43.7426 99.6347C46.054 99.1084 48.2021 98.0262 50.0005 96.4818C51.7989 98.0266 53.9472 99.1092 56.2588 99.6356C58.5704 100.162 60.9756 100.116 63.2655 99.5025C65.5555 98.8886 67.661 97.7252 69.3994 96.1131C71.1378 94.501 72.4565 92.4891 73.241 90.2518C75.5706 90.6905 77.9721 90.5541 80.2371 89.8544C82.502 89.1546 84.562 87.9127 86.2383 86.2365C87.9145 84.5602 89.1564 82.5003 89.8562 80.2353C90.5559 77.9703 90.6923 75.5688 90.2536 73.2392C92.4905 72.4542 94.5021 71.1351 96.1136 69.3965C97.7252 67.6579 98.8882 65.5523 99.5016 63.2624C100.115 60.9725 100.16 58.5675 99.6336 56.2562C99.107 53.9448 98.0242 51.7968 96.4793 49.9987Z" fill="#1C8FED"/>
<path d="M41.0226 69.0851L27.1282 55.1993C26.6009 54.6711 26.3047 53.9553 26.3047 53.209C26.3047 52.4626 26.6009 51.7468 27.1282 51.2186L28.8162 49.5284C29.3444 49.0011 30.0602 48.7049 30.8066 48.7049C31.5529 48.7049 32.2688 49.0011 32.7969 49.5284L42.897 59.622L66.6836 34.3446C67.1954 33.8016 67.9018 33.4838 68.6477 33.461C69.3936 33.4383 70.1181 33.7124 70.6621 34.2233L72.3956 35.8593C72.9393 36.3712 73.2575 37.0781 73.2803 37.8246C73.303 38.571 73.0285 39.2959 72.5169 39.84L45.0705 69.0222C44.8121 69.2976 44.5009 69.5183 44.1555 69.671C43.8101 69.8238 43.4375 69.9055 43.0599 69.9114C42.6822 69.9172 42.3073 69.8471 41.9573 69.7052C41.6073 69.5632 41.2895 69.3523 41.0226 69.0851Z" fill="white"/>
</svg>
