<svg width="43" height="44" viewBox="0 0 43 44" fill="none" xmlns="http://www.w3.org/2000/svg">
<g clip-path="url(#clip0_56759_31741)">
<path d="M41.8161 41.5878C42.2109 41.6207 42.7045 41.522 43.0993 41.5878C44.2837 41.7523 44.3166 43.5948 43.0993 43.7593H0.98501C-0.265257 43.7593 -0.33106 41.851 0.820501 41.6207C1.24822 41.522 1.77465 41.6207 2.20238 41.6207V7.89642C2.20238 7.5345 2.92621 6.64616 3.25523 6.44875C12.369 4.11272 21.6144 2.13861 30.794 0C34.1829 0.427723 32.6365 4.47464 33.0642 6.81067L40.6974 10.6602C41.0923 10.7589 41.8161 11.8117 41.8161 12.1408V41.5878ZM30.7611 2.27022L4.34099 8.35705V41.5878H13.2245V36.5868C13.2245 36.5868 13.5206 35.9945 13.5864 35.9287C13.8825 35.5339 14.4418 35.1062 14.9354 35.0075C15.9224 34.843 18.8178 34.8759 19.8706 35.0075C20.6603 35.0733 21.3512 35.4352 21.7131 36.159C21.746 36.2577 21.9763 36.7842 21.9763 36.8171V41.6207H30.7611V2.27022ZM39.6446 41.5878V12.6343L33.0313 9.2783V41.5878H39.6446ZM15.396 37.1461V41.5878H19.8377V37.1461H15.396Z" fill="white"/>
<path d="M9.11121 17.076C9.11121 17.076 8.84799 16.6812 8.81509 16.5825C8.71639 16.2206 8.71639 14.2464 8.78219 13.8516C8.88089 13.3581 9.24281 13.0291 9.76924 12.9633C10.2299 12.8975 12.1382 12.8975 12.5001 12.9962C13.3884 13.2594 13.3226 15.4309 13.2239 16.1877C13.1252 16.8457 12.7962 17.2405 12.1382 17.2734C11.5788 17.3392 9.50603 17.3721 9.11121 17.0431V17.076Z" fill="white"/>
<path d="M15.7245 17.076C15.7245 17.076 15.4613 16.6812 15.4284 16.5825C15.3297 16.2206 15.3297 14.2464 15.3955 13.8516C15.4942 13.3581 15.8561 13.0291 16.3825 12.9633C16.8431 12.8975 18.7515 12.8975 19.1134 12.9962C20.0017 13.2594 19.9359 15.4309 19.8372 16.1877C19.7385 16.8457 19.4095 17.2405 18.7515 17.2734C18.1921 17.3392 16.1193 17.3721 15.7245 17.0431V17.076Z" fill="white"/>
<path d="M22.3378 17.076C22.3378 17.076 22.0746 16.6812 22.0417 16.5825C21.9429 16.2206 21.9429 14.2464 22.0088 13.8516C22.1075 13.3581 22.4694 13.0291 22.9958 12.9633C23.4564 12.8975 25.3647 12.8975 25.7267 12.9962C26.615 13.2594 26.5492 15.4309 26.4505 16.1877C26.3518 16.8457 26.0228 17.2405 25.3647 17.2734C24.8054 17.3392 22.7326 17.3721 22.3378 17.0431V17.076Z" fill="white"/>
<path d="M9.11121 23.6893C9.11121 23.6893 8.81509 23.1958 8.78219 23.0312C8.71639 22.6364 8.71639 20.6623 8.81509 20.3004C8.9467 19.8727 9.30862 19.6424 9.73634 19.5766C10.197 19.5108 12.1053 19.5108 12.4672 19.6095C13.3555 19.8727 13.2897 22.0442 13.191 22.8009C13.0923 23.459 12.7633 23.8538 12.1053 23.8867C11.5459 23.9525 9.47313 23.9854 9.0783 23.6564L9.11121 23.6893Z" fill="white"/>
<path d="M15.7245 23.6893C15.7245 23.6893 15.4284 23.1958 15.3955 23.0312C15.3297 22.6364 15.3297 20.6623 15.4284 20.3004C15.56 19.8727 15.9219 19.6424 16.3496 19.5766C16.8102 19.5108 18.7185 19.5108 19.0805 19.6095C19.9688 19.8727 19.903 22.0442 19.8043 22.8009C19.7056 23.459 19.3766 23.8538 18.7185 23.8867C18.1592 23.9525 16.0864 23.9854 15.6916 23.6564L15.7245 23.6893Z" fill="white"/>
<path d="M22.3378 23.6893C22.3378 23.6893 22.0417 23.1958 22.0088 23.0312C21.9429 22.6364 21.9429 20.6623 22.0417 20.3004C22.1733 19.8727 22.5352 19.6424 22.9629 19.5766C23.4235 19.5108 25.3318 19.5108 25.6937 19.6095C26.5821 19.8727 26.5163 22.0442 26.4176 22.8009C26.3189 23.459 25.9899 23.8538 25.3318 23.8867C24.7725 23.9525 22.6997 23.9854 22.3049 23.6564L22.3378 23.6893Z" fill="white"/>
<path d="M9.11121 30.3025C9.11121 30.3025 8.84799 29.9077 8.81509 29.8089C8.71639 29.447 8.71639 27.4729 8.78219 27.0781C8.88089 26.5846 9.24281 26.2556 9.76924 26.1898C10.2299 26.1239 12.1382 26.1239 12.5001 26.2227C13.3884 26.4859 13.3226 28.6574 13.2239 29.4141C13.1252 30.0722 12.7962 30.467 12.1382 30.4999C11.5788 30.5657 9.50603 30.5986 9.11121 30.2696V30.3025Z" fill="white"/>
<path d="M15.7245 30.3025C15.7245 30.3025 15.4613 29.9077 15.4284 29.8089C15.3297 29.447 15.3297 27.4729 15.3955 27.0781C15.4942 26.5846 15.8561 26.2556 16.3825 26.1898C16.8431 26.1239 18.7515 26.1239 19.1134 26.2227C20.0017 26.4859 19.9359 28.6574 19.8372 29.4141C19.7385 30.0722 19.4095 30.467 18.7515 30.4999C18.1921 30.5657 16.1193 30.5986 15.7245 30.2696V30.3025Z" fill="white"/>
<path d="M22.3378 30.3025C22.3378 30.3025 22.0746 29.9077 22.0417 29.8089C21.9429 29.447 21.9429 27.4729 22.0088 27.0781C22.1075 26.5846 22.4694 26.2556 22.9958 26.1898C23.4564 26.1239 25.3647 26.1239 25.7267 26.2227C26.615 26.4859 26.5492 28.6574 26.4505 29.4141C26.3518 30.0722 26.0228 30.467 25.3647 30.4999C24.8054 30.5657 22.7326 30.5986 22.3378 30.2696V30.3025Z" fill="white"/>
</g>
<defs>
<clipPath id="clip0_56759_31741">
<rect width="42.3291" height="44" fill="white" transform="translate(0.420898)"/>
</clipPath>
</defs>
</svg>
