<svg width="45" height="40" viewBox="0 0 45 40" fill="none" xmlns="http://www.w3.org/2000/svg">
<rect x="1.35979" y="1.04116" width="42.2811" height="37.9177" rx="7.73372" stroke="white" stroke-width="1.7186"/>
<path d="M14.2505 14.007C14.6112 13.9168 16.0358 15.3595 15.9456 15.7021C15.8014 16.2611 12.1046 19.2366 12.1767 19.6694L15.9456 23.5285C16.0178 23.9252 14.5932 25.2597 14.3587 25.2597L14.0522 25.1154C12.8079 23.5465 10.6439 22.1039 9.48978 20.553C9.12912 20.0841 8.98485 19.7956 9.18322 19.1825C9.29142 18.8399 13.8899 14.1332 14.2325 14.043L14.2505 14.007Z" fill="white"/>
<path d="M30.5162 14.007C30.6965 13.9529 30.8228 14.007 30.949 14.1332C32.1933 15.7021 34.3573 17.1447 35.5114 18.6956C35.872 19.1645 36.0163 19.453 35.8179 20.0661C35.4933 21.076 31.5802 24.0875 30.7687 25.2055L29.0555 23.4924L32.8244 19.5431L29.0555 15.6841C28.9834 15.3414 30.3359 14.025 30.5162 13.9889V14.007Z" fill="white"/>
<path d="M23.9061 13.9307L18.8462 25.0214L21.1431 26.0693L26.203 14.9786L23.9061 13.9307Z" fill="white"/>
</svg>
