<svg width="24" height="24" viewBox="0 0 24 24" fill="none" xmlns="http://www.w3.org/2000/svg">
<g clip-path="url(#clip0_56820_1384)">
<path d="M20.4704 6.39364C21.0351 6.33717 22.6162 6.33717 23.068 6.50658C23.4633 6.67599 23.7457 7.07128 23.9151 7.46658C24.0845 12.3795 23.9151 17.3489 23.9715 22.3183C23.9715 22.996 23.4633 23.7866 22.7292 23.843C22.2774 23.8995 20.4139 23.843 20.0186 23.7866C19.5104 23.6172 19.1715 23.1089 19.0586 22.6007V7.74893C19.1151 7.01481 19.6798 6.45011 20.4139 6.39364H20.4704ZM22.4468 7.86187H20.5833V22.3183H22.4468V7.86187Z" fill="white"/>
<path d="M7.76447 11.6453C8.27271 11.5889 9.91036 11.5889 10.3621 11.7583C10.8139 11.9277 11.2657 12.4924 11.2657 13.0006V22.4877C11.2657 23.1089 10.7574 23.7865 10.0798 23.843C9.57153 23.8995 8.27271 23.8995 7.708 23.843C6.97389 23.7865 6.46565 23.1653 6.40918 22.4877V13.0571C6.46565 12.323 6.97389 11.7018 7.76447 11.6453ZM9.74094 13.1136H7.87741V22.3748H9.74094V13.1136Z" fill="white"/>
<path d="M21.3742 0.0124287C22.1083 -0.100512 22.5601 0.577134 22.1648 1.19831L16.4613 6.90184C15.7271 7.52302 14.9366 7.63596 14.033 7.29713C12.5083 6.73243 11.0401 5.77243 9.51538 5.15125C9.23303 5.09478 8.95068 5.15125 8.72479 5.32066L2.96479 11.0242C2.28715 11.5324 1.38362 10.7418 1.89185 10.0077L7.70832 4.19125C8.16009 3.79596 8.78126 3.57008 9.45891 3.62655C11.266 4.19125 12.9601 5.20772 14.7107 5.94184C15.0495 6.05478 15.3319 5.94184 15.5577 5.71596L21.0919 0.12537C21.0919 0.12537 21.2613 0.0124287 21.3177 0.0124287H21.3742Z" fill="white"/>
<path d="M13.9764 14.243C14.4282 14.1866 16.0658 14.1866 16.5176 14.243C17.1952 14.356 17.647 15.0336 17.647 15.7113C17.8164 17.8572 17.5341 20.2289 17.647 22.4313C17.647 23.0524 17.1388 23.7301 16.4611 23.843C15.9529 23.8995 14.6541 23.8995 14.0894 23.843C13.4117 23.7866 12.9035 23.2783 12.7905 22.6007V15.5983C12.847 14.9772 13.2988 14.356 13.9764 14.243ZM16.1223 15.7113H14.2588V22.3748H16.1223V15.7113Z" fill="white"/>
<path d="M1.44 18.3089C1.94824 18.2524 3.36 18.2524 3.81176 18.3089C4.43294 18.4783 4.82824 19.043 4.88471 19.6642C4.88471 20.2289 4.94118 22.3183 4.82824 22.7701C4.65882 23.3348 4.15059 23.7301 3.58588 23.7866C3.02118 23.843 1.77882 23.843 1.27059 23.7866C0.762353 23.7301 0.197647 23.2219 0.0847059 22.7136C-0.0282353 22.1489 -0.0282353 19.8901 0.0847059 19.3254C0.254118 18.7042 0.818824 18.3089 1.44 18.2524V18.3089ZM3.41647 19.7771H1.55294V22.3748H3.41647V19.7771Z" fill="white"/>
</g>
<defs>
<clipPath id="clip0_56820_1384">
<rect width="24" height="24" fill="white"/>
</clipPath>
</defs>
</svg>
