<svg width="44" height="44" viewBox="0 0 44 44" fill="none" xmlns="http://www.w3.org/2000/svg">
<g clip-path="url(#clip0_56759_31775)">
<path d="M40.3887 18.9459H37.0867H34.5002H11.1391C9.95592 18.9459 8.60764 19.7164 8.00229 20.7069L5.14062 26.733V32.9241L10.1485 22.1653C10.4237 21.67 10.974 21.5599 11.4968 21.5324H40.1685C40.8564 21.5875 41.6819 21.8901 41.4618 22.7431L34.5277 36.7763H2.60914V32.0986V32.1536V7.80192H13.2303C14.6061 9.3153 15.4591 11.4065 17.0826 12.6447C17.2752 12.7548 17.8805 12.9749 18.0456 12.9749H34.5277V15.9192H37.1143V12.5072C37.1143 11.6817 35.6009 10.3609 34.7479 10.4159H18.3483L15.184 6.06841C14.6887 5.60064 14.0833 5.32548 13.3954 5.27044C9.92841 4.83019 5.93858 5.43554 2.47156 5.1879C1.17831 5.32548 0.297794 6.20599 -0.00488281 7.41669V37.1065C0.32531 38.3172 1.26086 39.1702 2.52659 39.3353H35.2432C35.766 39.3353 36.1512 39.0326 36.4264 38.6199C38.5451 33.7771 41.5994 29.0443 43.6356 24.229C44.7087 21.67 43.3054 18.9459 40.4162 18.9459H40.3887Z" fill="white"/>
</g>
<defs>
<clipPath id="clip0_56759_31775">
<rect width="43.9869" height="44" fill="white" transform="matrix(-4.37114e-08 1 1 4.37114e-08 0 0.00656128)"/>
</clipPath>
</defs>
</svg>
