<svg width="24" height="24" viewBox="0 0 24 24" fill="none" xmlns="http://www.w3.org/2000/svg">
<g clip-path="url(#clip0_56820_1350)">
<g clip-path="url(#clip1_56820_1350)">
<path d="M16.0019 15.3206C18.3372 17.7489 19.3313 23.2453 15.0551 24H2.82632C-0.960664 23.2289 -0.408395 18.5036 1.43776 15.9933C2.52652 14.5167 4.38845 13.4174 6.18727 13.2861C7.7494 13.1713 10.3214 13.1713 11.8835 13.2861C13.351 13.4174 14.9604 14.2378 16.0019 15.3206ZM6.15571 15.1566C4.67247 15.3206 3.17346 16.4199 2.44762 17.7489C1.80068 18.9466 1.16951 21.5553 2.85788 22.1296L14.8973 22.1788C16.3806 21.9819 16.349 20.4397 16.1123 19.2419C15.6863 17.0762 13.8401 15.3863 11.7415 15.1566C9.94269 15.2714 7.93875 14.9761 6.17149 15.1566H6.15571Z" fill="white"/>
<path d="M15.6079 6C15.6079 9.31034 12.9183 12 9.60791 12C6.29757 12 3.60791 9.31034 3.60791 6C3.60791 2.68966 6.29757 0 9.60791 0C12.9183 0 15.6079 2.68966 15.6079 6ZM13.8254 6C13.8254 3.67639 11.9474 1.79841 9.62383 1.79841C7.30022 1.79841 5.42223 3.67639 5.42223 6C5.42223 8.32361 7.30022 10.2016 9.62383 10.2016C11.9474 10.2016 13.8254 8.32361 13.8254 6Z" fill="white"/>
<path d="M17.0739 2.43097C17.7816 2.33805 18.8794 2.74071 19.486 3.12788C22.5482 5.11023 22.2304 10.0816 18.9516 11.5993C18.1861 11.9555 17.0883 12.1259 16.265 11.8936C15.2395 11.5993 15.4995 10.1435 16.4528 10.159C17.2616 10.159 17.5794 10.3603 18.4172 9.9267C20.8294 8.68773 20.3383 4.72305 17.7094 4.19649C17.2761 4.10357 16.7994 4.24295 16.5105 3.79383C16.135 3.22081 16.4528 2.49292 17.0739 2.39999V2.43097Z" fill="white"/>
<path d="M17.4526 13.2326C17.9412 13.14 18.7964 13.2635 19.3025 13.3715C21.6585 13.881 23.5085 15.7027 23.8924 17.8178C24.3113 20.2107 23.6655 21.8472 20.5765 21.5693C19.7912 21.4921 19.2501 20.8591 19.7213 20.2107C20.2798 19.4697 21.7458 20.1027 21.9901 19.6704C22.0599 19.5469 22.0425 18.636 22.025 18.4507C21.868 16.6753 20.3496 15.2241 18.3775 14.9617C17.9587 14.8999 17.6445 15.008 17.2257 14.7764C16.5625 14.4059 16.7196 13.3561 17.47 13.2326H17.4526Z" fill="white"/>
</g>
</g>
<defs>
<clipPath id="clip0_56820_1350">
<rect width="24" height="24" fill="white"/>
</clipPath>
<clipPath id="clip1_56820_1350">
<rect width="24" height="24" fill="white"/>
</clipPath>
</defs>
</svg>
