<svg width="32" height="32" viewBox="0 0 32 32" fill="none" xmlns="http://www.w3.org/2000/svg">
<path d="M17.3749 25.75H4.625C3.72751 25.75 3 25.0224 3 24.125C3 23.2276 3.72751 22.5 4.625 22.5H17.3749C18.2724 22.5 18.9999 23.2276 18.9999 24.125C18.9999 25.0224 18.2724 25.75 17.3749 25.75Z" fill="#717579"/>
<path d="M27.3749 17.625H4.625C3.72751 17.625 3 16.8974 3 16C3 15.1026 3.72751 14.375 4.625 14.375H27.3749C28.2724 14.375 28.9999 15.1025 28.9999 16C28.9999 16.8975 28.2724 17.625 27.3749 17.625Z" fill="#717579"/>
<path d="M27.3749 9.49999H4.625C3.72751 9.49999 3 8.77248 3 7.87499C3 6.97749 3.72751 6.24998 4.625 6.24998H27.3749C28.2724 6.24998 28.9999 6.97749 28.9999 7.87499C28.9999 8.77248 28.2724 9.49999 27.3749 9.49999Z" fill="#717579"/>
</svg>
