<svg width="34" height="30" viewBox="0 0 34 30" fill="none" xmlns="http://www.w3.org/2000/svg">
<path d="M34 12.002H27.1754C24.5436 12.002 22.0751 15.2646 21.9934 17.7693C21.9072 20.4556 24.3212 23.9995 27.1754 23.9995H34V27.5252C34 28.6279 32.3574 30.0572 31.2229 29.9982H4.67785C2.26837 29.6398 0.575839 27.8655 0.394334 25.4334C-0.118417 18.6179 0.789108 11.1626 0.40341 4.28352C0.721043 1.96933 2.48618 0.231419 4.82305 0L27.8606 0.0680644C29.7074 0.716945 29.6121 3.05382 27.7381 3.56657L5.12254 3.59834C3.87015 3.69363 3.56613 5.27272 4.63701 5.88984L31.2184 6.00328C32.3483 5.94429 33.9954 7.37364 33.9954 8.47628V12.002H34Z" fill="#3E1D98"/>
<path d="M34.0002 14.4024V21.6036H27.3254C27.2391 21.6036 26.3407 21.1998 26.1773 21.1C23.8042 19.6661 23.8042 16.34 26.1773 14.9061C26.3407 14.8108 27.2346 14.4024 27.3254 14.4024H34.0002Z" fill="#3E1D98"/>
</svg>
